<svg xmlns="http://www.w3.org/2000/svg" width="434.84" height="126.63" viewBox="0 0 434.84 126.63"><defs><style>.a{fill:#ecab23;}.b{fill:#fff;}</style></defs><title>logo-white</title><path class="a" d="M75,125.84V60.24s39-36.9,39.33-37.19c.44.51,7.41,10.73,9.58,15.88a62.49,62.49,0,0,1,.08,49,60.21,60.21,0,0,1-10,15.87,67.83,67.83,0,0,1-8,7.9,68.61,68.61,0,0,1-13.86,8.84c-5.15,2.47-16.69,5.3-17,5.37A.61.61,0,0,1,75,125.84Z" transform="translate(0)"></path><path class="a" d="M105.74,14.5c-4.43,4.13-8.78,8.12-13.06,12.1-1.24-.72-2.33-1.45-3.49-2.17a44.75,44.75,0,0,0-15.6-5.73,48.84,48.84,0,0,0-14.88-.14,47.28,47.28,0,0,0-17.49,6.16A47.94,47.94,0,0,0,19,54.73a45.76,45.76,0,0,0-1,14A46.38,46.38,0,0,0,23.8,88c0,.07-8.2,8-12.41,12-.65-.94-1.3-1.81-1.81-2.68A56,56,0,0,1,1.45,77.85,69.17,69.17,0,0,1,0,63.43,61.53,61.53,0,0,1,3.41,43.86,64.57,64.57,0,0,1,38.61,5.58,65.66,65.66,0,0,1,52.83,1.16,128.5,128.5,0,0,1,66.26,0,75.66,75.66,0,0,1,75.4.8,63.38,63.38,0,0,1,92,5.8a67.16,67.16,0,0,1,12.34,7.54A16.59,16.59,0,0,0,105.74,14.5Z" transform="translate(0)"></path><path class="b" d="M66.26,126.63,56,126.41V77.13s10.23-9.72,10.23-9.64S66.26,126.63,66.26,126.63Z" transform="translate(0)"></path><path class="b" d="M47.1,85.17v39.51l-10.3-3.85.14-26Z" transform="translate(0)"></path><path class="b" d="M27.36,115.61,20,109.89l7.55-7Z" transform="translate(0)"></path><path class="b" d="M189.52,104.84a33.58,33.58,0,0,1-13.27-2.6A32.66,32.66,0,0,1,165.58,95a33.31,33.31,0,0,1-7.13-11,36,36,0,0,1-2.56-13.72,37.45,37.45,0,0,1,2.47-13.77A31.78,31.78,0,0,1,176,38.43a34.12,34.12,0,0,1,13.27-2.56,32.61,32.61,0,0,1,12.87,2.42,29.81,29.81,0,0,1,9.64,6.42,24,24,0,0,1,5.65,8.74l-10.85,5.2a17.56,17.56,0,0,0-6.37-8.43,18.22,18.22,0,0,0-11-3.22,20.79,20.79,0,0,0-11.08,3,20.12,20.12,0,0,0-7.44,8.16,26.67,26.67,0,0,0-2.64,12.2,26.1,26.1,0,0,0,2.73,12.24,20.46,20.46,0,0,0,7.58,8.21,20.93,20.93,0,0,0,11.12,3,22,22,0,0,0,9.42-2,17.1,17.1,0,0,0,6.9-5.74,15,15,0,0,0,2.6-8.83V72L214,76.86H189.25V66.54h31.39v6.73A33.55,33.55,0,0,1,218,86.9a28.49,28.49,0,0,1-7,9.91,30.19,30.19,0,0,1-10,6A33.3,33.3,0,0,1,189.52,104.84Z" transform="translate(0)"></path><path class="b" d="M244.94,104.84a18.78,18.78,0,0,1-9.82-2.51,16.45,16.45,0,0,1-6.37-7,23.71,23.71,0,0,1-2.19-10.49V55h11.75V83.85a11.24,11.24,0,0,0,1.21,5.34A8.84,8.84,0,0,0,243,92.78a10.36,10.36,0,0,0,5.16,1.3,10,10,0,0,0,5.11-1.3,9.08,9.08,0,0,0,3.5-3.64A11.52,11.52,0,0,0,258,83.58V55h11.74v48.78H258.66V94.17l1,1.7A12.66,12.66,0,0,1,254,102.6,18,18,0,0,1,244.94,104.84Z" transform="translate(0)"></path><path class="b" d="M301.62,104.84A23.92,23.92,0,0,1,289,101.47a24.32,24.32,0,0,1-8.79-9.19A26.22,26.22,0,0,1,277,79.37a25.89,25.89,0,0,1,3.22-12.91A24.71,24.71,0,0,1,289,57.31a23.65,23.65,0,0,1,12.51-3.41,21.66,21.66,0,0,1,9.91,2.2,17,17,0,0,1,6.86,6.14l-1.79,2.42V35.87h11.74v67.89h-11.1V94.35l1.26,2.33a16.31,16.31,0,0,1-7,6A22.75,22.75,0,0,1,301.62,104.84Zm1.25-10.76A12.93,12.93,0,0,0,314.76,87a17.4,17.4,0,0,0,0-15.2,13.63,13.63,0,0,0-18.47-5.5l-.53.3a13.43,13.43,0,0,0-4.89,5.2,16,16,0,0,0-1.75,7.58A16.15,16.15,0,0,0,290.9,87a13,13,0,0,0,4.89,5.2A13.45,13.45,0,0,0,302.87,94.08Z" transform="translate(0)"></path><path class="b" d="M343.05,103.76V65.47h-8.61V55h8.61V53.36a18.39,18.39,0,0,1,2.29-9.46,15,15,0,0,1,6.41-6,21.45,21.45,0,0,1,9.78-2.07,23.54,23.54,0,0,1,2.37.14c.87.09,1.6.19,2.2.31V46.46a13.25,13.25,0,0,0-1.66-.23h-1.39A9.43,9.43,0,0,0,357,48q-2.15,1.74-2.15,5.42V55h21.34V65.47H354.8v38.29Zm28.7,0V55h11.84v48.78Z" transform="translate(0)"></path><path class="b" d="M391.57,103.76V55h11v9.59l-.9-1.7a12.92,12.92,0,0,1,5.61-6.68,17.68,17.68,0,0,1,9.1-2.29A19.32,19.32,0,0,1,426,56.23a16.52,16.52,0,0,1,6.5,6.5,19.41,19.41,0,0,1,2.33,9.64v31.39H423.05V75.15a11.54,11.54,0,0,0-1.26-5.56A9.23,9.23,0,0,0,418.34,66a10.81,10.81,0,0,0-10.27,0,9.19,9.19,0,0,0-3.5,3.63,11.65,11.65,0,0,0-1.25,5.56V103.8Z" transform="translate(0)"></path></svg>