<?xml version="1.0" standalone="no"?>
<!DOCTYPE svg PUBLIC "-//W3C//DTD SVG 1.1//EN" "http://www.w3.org/Graphics/SVG/1.1/DTD/svg11.dtd">
<svg xmlns="http://www.w3.org/2000/svg">
<metadata>Copyright (C) 2025 by original authors @ fontello.com</metadata>
<defs>
<font id="pbminfotech-base-icons" horiz-adv-x="1000" >
<font-face font-family="pbminfotech-base-icons" font-weight="400" font-stretch="normal" units-per-em="1000" ascent="850" descent="-150" />
<missing-glyph horiz-adv-x="1000" />
<glyph glyph-name="arrow-up" unicode="&#xe800;" d="M792 621v-458c0-12-10-21-21-21s-21 9-21 21v408l-506-507c-8-8-21-8-30 0-8 9-8 22 0 30l507 506h-408c-12 0-21 9-21 21s9 21 21 21h458c5 0 11-2 15-6l0 0c3-4 5-9 6-14 0 0 0-1 0-1z" horiz-adv-x="1000" />

<glyph glyph-name="chat" unicode="&#xe801;" d="M290 240l350 0q2 0 6 2l4 0 0-92q0-40-29-70t-71-30l-250 0-150-150 0 150-50 0q-40 0-70 30t-30 70l0 300q0 42 30 71t70 29l190 0 0-310z m610 560q42 0 71-29t29-71l0-300q0-40-29-70t-71-30l-50 0 0-150-150 150-350 0 0 400q0 42 30 71t70 29l450 0z" horiz-adv-x="1000" />

<glyph glyph-name="calendar" unicode="&#xe802;" d="M800 700q42 0 71-29t29-71l0-600q0-40-29-70t-71-30l-700 0q-40 0-70 30t-30 70l0 600q0 42 30 71t70 29l46 0 0-100 160 0 0 100 290 0 0-100 160 0 0 100 44 0z m0-700l0 400-700 0 0-400 700 0z m-540 800l0-170-70 0 0 170 70 0z m450 0l0-170-70 0 0 170 70 0z" horiz-adv-x="900" />

<glyph glyph-name="heart" unicode="&#xe803;" d="M500-79q-14 0-25 10l-348 336q-5 5-15 15t-31 37-38 54-30 67-13 77q0 123 71 192t196 70q34 0 70-12t67-33 54-38 42-38q20 20 42 38t54 38 67 33 70 12q125 0 196-70t71-192q0-123-128-251l-347-335q-10-10-25-10z" horiz-adv-x="1000" />

<glyph glyph-name="support" unicode="&#xe804;" d="M940 200c-51 51-122 73-214 49l-327 327 4 16c19 71-1 147-53 198-52 53-127 72-197 53-11-3-18-11-21-21-3-10 0-21 8-28l78-79c23-23 23-60 0-83-22-22-60-22-83 0l-78 79c-8 7-18 10-28 7-11-2-18-10-21-20-19-70-1-145 52-198 52-51 123-73 215-48l327-328c-25-91-4-162 48-214 53-53 128-72 198-53 10 3 18 11 21 21 2 10-1 21-8 28l-79 79c-23 23-23 60 0 83 23 23 61 22 83 0l79-79c7-7 18-10 28-7 10 2 18 10 21 20 19 70 0 145-53 198z m-626 129l-280-279c-45-46-45-120 0-166 46-45 120-45 166 0l279 280-165 165z m-141-354c-12-11-30-11-42 0-11 12-11 30 0 42l178 177c11 12 30 12 41 0 12-11 12-30 0-41l-177-178z m818 816l-50 50c-10 10-24 12-36 5l-155-93c-17-10-19-33-6-46l13-13-198-196 83-83 197 197 18-18c13-13 36-11 46 6l93 155c7 12 5 26-5 36z" horiz-adv-x="1000" />

<glyph glyph-name="quote-1" unicode="&#xe805;" d="M0-62l0 437q0 71 15 129t38 97 61 67 72 45 83 28 82 14 81 7l37-176q-49-9-81-20t-66-31-48-53-10-77l131 0 0-467-395 0z m529 0l0 437q0 71 16 129t38 97 61 67 72 45 83 28 81 14 81 7l39-176q-51-9-83-20t-65-31-47-53-12-77l131 0 0-467-395 0z" horiz-adv-x="1000" />

<glyph glyph-name="right-open" unicode="&#xe806;" d="M618 361l-414-415q-11-10-25-10t-25 10l-93 93q-11 11-11 25t11 25l296 297-296 296q-11 11-11 25t11 25l93 93q10 11 25 11t25-11l414-414q10-11 10-25t-10-25z" horiz-adv-x="714.3" />

<glyph glyph-name="left-open" unicode="&#xe807;" d="M654 682l-297-296 297-297q10-10 10-25t-10-25l-93-93q-11-10-25-10t-25 10l-414 415q-11 10-11 25t11 25l414 414q10 11 25 11t25-11l93-93q10-10 10-25t-10-25z" horiz-adv-x="714.3" />

<glyph glyph-name="user" unicode="&#xe808;" d="M714 69q0-60-35-104t-84-44h-476q-49 0-84 44t-35 104q0 48 5 90t17 85 33 73 52 50 76 19q73-72 174-72t175 72q42 0 75-19t52-50 33-73 18-85 4-90z m-143 495q0-88-62-151t-152-63-151 63-63 151 63 152 151 63 152-63 62-152z" horiz-adv-x="714.3" />

<glyph glyph-name="chat-4" unicode="&#xe809;" d="M786 421q0-77-53-143t-143-104-197-38q-48 0-98 9-70-49-155-72-21-5-48-9h-2q-6 0-12 5t-6 12q-1 1-1 3t1 4 1 3l1 3t2 3 2 3 3 3 2 2q3 3 13 14t15 16 12 17 14 21 11 25q-69 40-108 98t-40 125q0 78 53 144t143 104 197 38 197-38 143-104 53-144z m214-142q0-67-40-126t-108-98q5-14 11-25t14-21 13-16 14-17 13-14q0 0 2-2t3-3 2-3 2-3l1-3t1-3 1-4-1-3q-2-8-7-13t-12-4q-28 4-48 9-86 23-156 72-50-9-98-9-151 0-263 74 32-3 49-3 90 0 172 25t148 72q69 52 107 119t37 141q0 43-13 85 72-39 114-99t42-128z" horiz-adv-x="1000" />

<glyph glyph-name="folder-open" unicode="&#xe80a;" d="M1049 319q0-17-18-37l-187-221q-24-28-67-48t-81-20h-607q-19 0-33 7t-15 24q0 17 17 37l188 221q24 28 67 48t80 20h607q19 0 34-7t15-24z m-192 192v-90h-464q-53 0-110-26t-92-67l-188-221-2-3q0 2-1 7t0 7v536q0 51 37 88t88 37h179q51 0 88-37t37-88v-18h303q52 0 88-37t37-88z" horiz-adv-x="1071.4" />

<glyph glyph-name="tags" unicode="&#xe80b;" d="M250 600q0 30-21 51t-50 20-51-20-21-51 21-50 51-21 50 21 21 50z m595-321q0-30-20-51l-274-274q-22-21-51-21-30 0-50 21l-399 399q-21 21-36 57t-15 65v232q0 29 21 50t50 22h233q29 0 65-15t57-36l399-399q20-21 20-50z m215 0q0-30-21-51l-274-274q-22-21-51-21-20 0-33 8t-29 25l262 262q21 21 21 51 0 29-21 50l-399 399q-21 21-57 36t-65 15h125q29 0 65-15t57-36l399-399q21-21 21-50z" horiz-adv-x="1071.4" />

<glyph glyph-name="share" unicode="&#xe80c;" d="M793 202c-58 0-109-29-141-72l-277 142c5 15 8 32 8 49 0 23-5 45-13 65l290 175c32-38 79-63 133-63 97 0 176 79 176 176 0 97-79 176-176 176-97 0-176-79-176-176 0-22 5-43 12-63l-290-175c-33 37-79 61-132 61-97 0-176-79-176-176 0-97 79-176 176-176 59 0 111 29 143 74l276-142c-5-16-9-33-9-51 0-97 79-176 176-176 97 0 176 79 176 176 0 97-79 176-176 176z" horiz-adv-x="1000" />

<glyph glyph-name="facebook-logo" unicode="&#xe80d;" d="M577 522v87c0 12 1 23 2 30 1 7 4 14 8 21 4 6 11 11 21 14 9 2 22 4 38 4h86v172h-138c-80 0-137-19-172-57-34-38-52-93-52-167v-104h-103v-172h103v-500h207v500h138l18 172h-156z" horiz-adv-x="1000" />

<glyph glyph-name="location" unicode="&#xe80e;" d="M429 493q0 59-42 101t-101 42-101-42-42-101 42-101 101-42 101 42 42 101z m142 0q0-61-18-100l-203-432q-9-18-27-29t-37-11-38 11-26 29l-204 432q-18 39-18 100 0 118 84 202t202 84 202-84 83-202z" horiz-adv-x="571.4" />

<glyph glyph-name="linkedin-logo" unicode="&#xe80f;" d="M120 849c-66 0-120-54-120-120 0-66 54-120 120-120 67 0 120 54 120 120 0 66-54 120-120 120z m-103-331h207v-667h-207z m734 16c-100 0-168-55-196-107h-2v91h-199 0v-667h207v330c0 87 16 171 124 171 107 0 108-99 108-177v-324h207v366c0 179-39 317-249 317z" horiz-adv-x="1000" />

<glyph glyph-name="next-1" unicode="&#xe810;" d="M1357 395l-438 438a63 63 0 0 1-88-89l331-331h-1099a63 63 0 1 1 0-125h1099l-331-331a63 63 0 1 1 87-90l1 2 438 438a63 63 0 0 1 0 88z" horiz-adv-x="1375" />

<glyph glyph-name="down-open-big" unicode="&#xe811;" d="M63 570l370-356 372 356q22 26 48 0 26-22 0-48l-396-392q-22-22-48 0l-396 392q-26 26 0 48 24 24 50 0z" horiz-adv-x="866" />

<glyph glyph-name="up-open-big" unicode="&#xe812;" d="M804 130l-372 358-370-358q-26-22-50 0-24 24 0 50l396 390q26 26 48 0l396-390q24-26 0-50-26-22-48 0z" horiz-adv-x="864" />

<glyph glyph-name="cancel" unicode="&#xe813;" d="M452 194q18-18 18-43t-18-43q-18-16-43-16t-43 16l-132 152-132-152q-18-16-43-16t-43 16q-16 18-16 43t16 43l138 156-138 158q-16 18-16 43t16 43q18 16 43 16t43-16l132-152 132 152q18 16 43 16t43-16q18-18 18-43t-18-43l-138-158z" horiz-adv-x="470" />

<glyph glyph-name="angle-right" unicode="&#xe814;" d="M332 314q0-7-5-12l-261-261q-5-5-12-5t-13 5l-28 28q-6 6-6 13t6 13l219 219-219 220q-6 5-6 12t6 13l28 28q5 6 13 6t12-6l261-260q5-5 5-13z" horiz-adv-x="357.1" />

<glyph glyph-name="arrow-right" unicode="&#xe815;" d="M924 352l-433-433-41 42 361 361h-752v59h752l-361 362 41 41 433-432z" horiz-adv-x="1000" />

<glyph glyph-name="aside" unicode="&#xe816;" d="M819 638q16-16 27-42t11-50v-642q0-23-15-38t-38-16h-750q-23 0-38 16t-16 38v892q0 23 16 38t38 16h500q22 0 49-11t42-27z m-248 136v-210h210q-5 17-12 23l-175 175q-6 7-23 12z m215-853v572h-232q-23 0-38 16t-16 37v233h-429v-858h715z m-572 483q0 7 5 12t13 5h393q8 0 13-5t5-12v-36q0-8-5-13t-13-5h-393q-8 0-13 5t-5 13v36z m411-125q8 0 13-5t5-13v-36q0-8-5-13t-13-5h-393q-8 0-13 5t-5 13v36q0 8 5 13t13 5h393z m0-143q8 0 13-5t5-13v-36q0-8-5-13t-13-5h-393q-8 0-13 5t-5 13v36q0 8 5 13t13 5h393z" horiz-adv-x="857.1" />

<glyph glyph-name="music" unicode="&#xe817;" d="M857 725v-625q0-28-19-50t-48-33-58-18-53-6-54 6-58 18-48 33-19 50 19 50 48 33 58 18 54 6q58 0 107-22v300l-429-132v-396q0-28-19-50t-48-33-58-18-53-6-54 6-58 18-48 33-19 50 19 50 48 34 58 17 54 6q58 0 107-21v539q0 17 10 32t28 20l464 142q7 3 16 3 22 0 38-16t15-38z" horiz-adv-x="857.1" />

<glyph glyph-name="plus" unicode="&#xe818;" d="M550 400q30 0 30-50t-30-50l-210 0 0-210q0-30-50-30t-50 30l0 210-210 0q-30 0-30 50t30 50l210 0 0 210q0 30 50 30t50-30l0-210 210 0z" horiz-adv-x="580" />

<glyph glyph-name="quote-2" unicode="&#xe819;" d="M264 693c-6-1-12-3-17-8-3-3-10-13-22-33-68-109-117-225-147-349-6-23-11-48-13-59-3-22-3-48 0-69 11-69 57-125 125-152 24-10 48-15 75-16 63-2 119 22 160 69 29 34 47 78 51 126 1 10 1 33-1 42-5 38-18 70-41 99-6 7-18 19-25 25-23 21-51 36-85 47-11 3-15 4-21 3-11-3-20-12-23-23-3-9 0-20 7-27 5-6 9-8 18-10 61-15 106-67 111-130 1-9 1-27-1-35-1-8-3-17-5-23-5-17-14-34-25-48-5-6-16-18-22-22-23-19-50-29-79-32-9-1-25 0-33 1-25 4-46 11-65 23-16 11-32 26-42 42-7 11-14 27-17 39-3 14-4 24-4 41 1 16 2 23 8 51 11 47 26 100 43 145 29 81 68 158 116 231 2 4 5 8 6 10 7 16-3 37-21 41-3 1-7 1-11 1z m461 0c-6-1-12-3-17-8-3-3-10-13-23-34-74-118-125-246-154-382-7-28-8-36-8-60 0-18 1-23 3-36 9-54 38-98 84-129 37-24 79-37 125-37 28 0 51 5 76 14 70 29 119 99 126 180 1 8 0 28 0 37-5 49-26 92-61 125-9 8-18 15-29 22-9 7-15 10-27 16-12 5-20 9-34 13l-11 4-5 0c-7 0-10-1-15-4-5-2-11-8-13-14-3-5-3-14-2-19 2-8 7-15 13-18 4-3 6-3 12-5 33-8 62-28 83-55 13-18 23-39 27-60 2-11 2-18 2-32 0-16-2-26-6-41-5-16-15-34-26-48-5-6-16-18-22-23-20-15-43-25-67-29-9-2-17-3-28-2-39 1-77 16-103 41-23 22-36 48-40 80-1 10-1 33 0 43 2 16 11 56 20 89 30 109 79 218 140 312 10 15 11 17 12 20 2 5 2 11 1 16-3 11-11 21-22 23-4 1-7 1-11 1z" horiz-adv-x="1000" />

<glyph glyph-name="right-arrow" unicode="&#xe81a;" d="M993 366l0 0-227 227c-8 10-22 11-32 3-9-8-11-23-2-32 0-1 1-2 2-3l189-188h-900c-13 0-23-11-23-23s10-23 23-23h900l-189-188c-9-8-11-23-2-32s22-11 32-3c1 1 1 2 2 3l227 227c9 9 9 23 0 32z" horiz-adv-x="1000" />

<glyph glyph-name="gallery" unicode="&#xe81b;" d="M856 518l-100 0-124 150-214-150-180 0q-52 0-90-39t-38-91l0-160-108 296q-10 38 22 52l680 248q36 10 50-24z m106-90q16 0 27-12t11-28l0-472q0-16-11-28t-27-12l-724 0q-16 0-27 12t-11 28l0 472q0 16 11 28t27 12l724 0z m-56-452l0 162-72 160-166-60-130-132-138 170-92-214 0-86 598 0z" horiz-adv-x="1000" />

<glyph glyph-name="right-small" unicode="&#xe81c;" d="M328 595q15 15 36 15t37-15l245-245-245-245q-15-15-36-15-22 0-37 15t-15 37 15 37l120 119-395 0q-22 0-37 15t-16 37 16 37 37 16l395 0-120 118q-15 15-15 37t15 37z" horiz-adv-x="646" />

<glyph glyph-name="left-small" unicode="&#xe81d;" d="M595 403q21 0 36-16t15-37-15-37-36-15l-395 0 119-119q15-15 15-37t-15-37-36-15q-23 0-38 15l-245 245 245 245q15 15 37 15t37-15 15-37-15-37l-119-118 395 0z" horiz-adv-x="646" />

<glyph glyph-name="angle-left" unicode="&#xe81e;" d="M350 546q0-7-6-12l-219-220 219-219q6-6 6-13t-6-13l-28-28q-5-5-12-5t-13 5l-260 261q-6 5-6 12t6 13l260 260q5 6 13 6t12-6l28-28q6-5 6-13z" horiz-adv-x="357.1" />

<glyph glyph-name="arrow-left" unicode="&#xe81f;" d="M941 322h-752l361-361-41-42-433 433 433 432 41-41-361-362h752v-59z" horiz-adv-x="1000" />

<glyph glyph-name="pin" unicode="&#xe820;" d="M500 850c-204 0-369-166-369-369 0-67 30-140 31-143 10-23 29-58 43-79l253-384c10-16 26-25 42-25s32 9 42 25l253 384c14 21 33 56 43 79 1 3 31 76 31 143 0 203-165 369-369 369z m298-495c-9-20-26-54-39-73l-253-383c-5-8-7-8-12 0l-253 383c-12 19-30 53-39 73 0 1-28 68-28 126 0 179 146 326 326 326 180 0 326-147 326-326 0-59-28-125-28-126z m-298 321c-108 0-196-88-196-195 0-108 88-196 196-196 108 0 196 88 196 196 0 107-88 195-196 195z m0-347c-84 0-152 68-152 152s68 152 152 152 152-68 152-152-68-152-152-152z" horiz-adv-x="1000" />

<glyph glyph-name="mail" unicode="&#xe821;" d="M949 683h-898c-28 0-51-23-51-51v-564c0-28 23-51 51-51h898c28 0 51 23 51 51v564c0 28-23 51-51 51z m-19-38l-400-300c-8-6-19-9-30-9-11 0-22 3-29 9l-400 300h859z m-214-320l218-269c0 0 0-1 1-1h-869c0 0 0 1 0 1l218 269c7 8 6 20-3 27-8 7-20 6-27-3l-215-266v538l408-307c16-11 35-16 53-16 19 0 37 5 53 16l409 307v-538l-216 266c-7 9-19 10-27 3-9-6-10-19-3-27z" horiz-adv-x="1000" />

<glyph glyph-name="search-1" unicode="&#xe822;" d="M458 725c-183 0-333-150-333-333s150-334 333-334c77 0 148 27 205 71l141-142c16-16 43-16 59 0s16 43 0 59l-142 142c44 56 71 127 71 204 0 183-150 333-334 333z m0-583c-138 0-250 112-250 250s112 250 250 250 250-112 250-250-112-250-250-250z" horiz-adv-x="1000" />

<glyph glyph-name="shopping-cart" unicode="&#xe823;" d="M27 760c-7-1-13-3-18-8-5-5-8-12-9-20 0-8 3-16 9-22 3-3 7-5 11-7l4-1 66 0 65 0 1-1c0-1 32-115 70-254 77-278 71-257 76-262 4-5 8-8 15-10l2-1 268 0c244 0 268 0 270 1 11 2 19 9 23 20 2 7 119 412 120 414 0 3 0 7 0 10-3 12-11 21-22 23-3 1-4 1-374 1-204 0-371 0-371 0 0 0-7 22-14 49-7 27-14 50-14 51-4 8-11 14-21 17-2 0-7 0-79 0-43 0-78 0-78 0z m904-177c0 0-23-79-51-175l-50-175-242 0-241 0-49 175c-27 97-49 176-49 176 0 0 68 0 341 0l342 0-1-1z m-555-117c-4-1-6-2-9-3-6-4-11-10-13-18-1-4-1-10 0-14 3-11 11-19 22-22l3 0 209 0 209 0 3 0c10 3 19 11 21 22 1 3 2 10 1 13-2 7-7 14-13 19-3 1-5 2-9 3-3 1-7 1-212 1-203 0-210 0-212-1z m60-117c-6-1-11-3-15-8-9-8-11-21-6-33 3-6 9-12 16-15 6-2-6-2 157-2 163 0 151 0 157 2 7 3 14 10 17 17 1 4 2 6 2 11 0 5-1 8-3 13-2 3-3 5-6 8-4 4-9 6-15 7-2 1-17 1-152 1-131 0-150 0-152-1z m-30-233c-46-4-82-42-82-88 0-34 19-64 49-79 9-4 16-7 25-8 28-5 57 5 76 25 37 37 34 96-6 130-7 5-17 11-26 14-11 4-25 6-36 6z m13-60c10-2 18-10 21-19 1-3 1-4 1-9 0-6 0-6-1-9-3-10-11-17-21-20-4-1-10-1-14 0-11 4-20 13-22 24 0 3 0 9 1 12 2 7 6 13 12 17 7 5 15 6 23 4z m338 60c-5-1-12-2-18-4-30-8-53-33-61-63-2-8-2-12-2-21 0-10 0-13 2-21 6-24 22-45 43-56 18-10 39-13 58-10 18 3 34 12 47 24 13 14 22 31 25 51 1 5 1 18 0 24-3 16-9 30-19 43-3 4-9 10-13 13-17 14-40 21-62 20z m14-60c10-2 18-11 21-20 1-4 1-12 0-16-4-13-15-21-28-21-5 0-8 0-13 3-6 3-11 7-14 13-2 5-2 7-2 13 0 6 0 8 2 12 5 9 13 15 23 17 3 0 8 0 11-1z" horiz-adv-x="1000" />

<glyph glyph-name="phone-1" unicode="&#xe824;" d="M500 791a442 442 0 0 0 172-848 442 442 0 0 0-344 814 439 439 0 0 0 172 34m0 59c-276 0-500-224-500-500s224-500 500-500 500 224 500 500-224 500-500 500z m146-769c-29 2-70 12-110 26-141 50-278 185-308 373-5 33 1 64 26 89 9 8 16 17 24 26 32 32 77 33 110 2 10-10 20-20 30-30a74 74 0 0 0 3-103c-8-8-16-17-24-25-9-9-20-14-32-18-15-4-18-11-11-25q64-134 200-192c12-6 17-3 22 9 11 26 31 45 53 61 26 17 62 14 86-7a514 514 0 0 0 38-36 75 75 0 0 0 0-102c-3-4-7-8-11-13-22-25-49-37-96-35z" horiz-adv-x="1000" />

<glyph glyph-name="apple-logo" unicode="&#xe825;" d="M692 850c3 0 5 0 8 0 5-70-22-123-54-161-32-38-76-75-147-69-5 69 22 118 54 156 31 35 86 67 139 74z m216-734c0-1 0-1 0-2-20-60-49-112-84-161-31-43-70-102-140-102-60 0-100 39-161 40-65 1-101-33-160-41-7 0-14 0-21 0-43 6-79 41-104 72-76 92-135 211-146 364 0 14 0 29 0 44 5 109 58 198 128 241 38 23 89 42 145 33 25-3 50-12 72-20 20-8 46-22 71-21 16 0 33 9 49 15 49 18 98 38 161 28 76-11 130-45 163-97-64-41-115-103-106-208 7-96 63-152 133-185z" horiz-adv-x="1000" />

<glyph glyph-name="quote-left" unicode="&#xe826;" d="M302 844c-108-19-217-100-263-196-38-80-39-89-39-405l0-284 15-31c18-36 44-58 83-70 36-10 303-12 345-1 20 5 35 15 58 37 42 43 45 58 42 250l-2 154-17 29c-10 15-30 37-44 47l-26 17-114 3c-104 3-116 5-131 16-25 18-33 48-26 97 8 48 16 68 46 101 35 38 72 54 139 58 80 5 82 7 82 92 0 84-4 88-71 90-25 1-59-2-77-4z m634 0c-108-18-215-98-264-198-37-75-39-91-39-406l0-281 16-31c17-36 43-58 82-70 35-10 303-12 343-2 31 8 78 47 89 75 7 15 9 60 9 194 0 197-2 203-46 239-32 27-52 30-160 30-133 0-149 10-149 86 0 53 12 90 41 123 37 42 75 59 143 63 80 5 82 7 82 93 0 65-1 67-15 79-14 10-24 12-58 11-24 0-57-3-74-5z" horiz-adv-x="1172" />

<glyph glyph-name="google-play" unicode="&#xe827;" d="M715 190l-119 118-438-433z m0 320l-557 315 438-433z m175-219c36 28 36 90-2 118l-117 67-131-126 131-126z m-847-441l510 500-510 500v0c-26-13-43-37-43-69v-862c0-32 17-56 43-69z" horiz-adv-x="917" />

<glyph glyph-name="hammer" unicode="&#xe828;" d="M412 576v-64h176v63c-5 1-176 1-176 1z m0-123v-574c0-16 13-29 29-29h118c16 0 29 13 29 29v574z m355 256c-31 47-89 102-193 102h-221v10c0 16-13 29-29 29h-103c-17 0-30-13-30-29v-197c0-16 13-29 30-29h103c16 0 29 13 29 29v10h221c106 0 188-52 189-53 5-4 11-5 17-5 5 0 11 1 15 4 10 7 15 18 13 30 0 2-8 51-41 99z" horiz-adv-x="1000" />

<glyph glyph-name="menu-1" unicode="&#xe829;" d="M979 663h-958c-12 0-21-10-21-21s9-21 21-21h958c12 0 21 9 21 21s-9 21-21 21z m0-292h-958c-12 0-21-9-21-21s9-21 21-21h958c12 0 21 10 21 21s-9 21-21 21z m0-292h-958c-12 0-21-9-21-21 0-11 9-20 21-20h958c12 0 21 9 21 20 0 12-9 21-21 21z" horiz-adv-x="1000" />

<glyph glyph-name="check" unicode="&#xe82a;" d="M500 793c-244 0-443-199-443-443s199-443 443-443 443 199 443 443-199 443-443 443z m0-834c-215 0-391 176-391 391s176 391 391 391 391-176 391-391-176-391-391-391z m202 534l-230-230-118 118c-10 10-26 10-36 0-11-10-11-27 0-37l136-136c5-6 12-8 18-8s14 2 19 8l248 248c10 10 10 26 0 37-10 10-27 10-37 0z" horiz-adv-x="1000" />

<glyph glyph-name="quote" unicode="&#xe82b;" d="M548 233v23c0 220 162 399 375 425 28 3 52-19 52-47v0c0-25-18-45-42-48-75-9-142-43-192-92-18-18-5-48 20-48 0 0 0 0 0 0 123 0 220-101 214-224-6-109-94-197-203-203-123-6-224 91-224 214z m-523 4l0 19c0 220 163 399 375 425 28 3 53-19 53-47v0c0-25-19-45-43-48-75-9-142-43-192-92-18-18-5-48 20-48 0 0 1 0 1 0 119 0 214-95 214-213 0-121-99-217-220-214-117 3-208 102-208 218z" horiz-adv-x="1000" />

<glyph glyph-name="align-left" unicode="&#xe82c;" d="M1000 732v-58h-1000v58h1000z m-176-235h-824v-59h824v59z m-824-294h1000v59h-1000v-59z m0-235h588v59h-588v-59z" horiz-adv-x="1000" />

<glyph glyph-name="shopping-cart-1" unicode="&#xe82d;" d="M549 1a76 76 0 1 0-76-75 76 76 0 0 0 76 75z m329 0a76 76 0 1 0-76-75 76 76 0 0 0 76 75z m-831 755h107a46 46 0 0 0 44-34h0c36-129 114-409 150-539a141 141 0 0 1 136-103h456a141 141 0 0 1 137 107c32 127 95 379 95 379a47 47 0 0 1-45 59h-654a47 47 0 1 1 0-94h593l-80-322a47 47 0 0 0-46-35h-456a47 47 0 0 0-45 34v0c-36 130-114 410-150 539a140 140 0 0 1-135 103h-107a47 47 0 0 1 0-94z" horiz-adv-x="1174" />

<glyph glyph-name="star-1" unicode="&#xe82e;" d="M541 650l-41 194-41-194c-13-63-45-122-91-168s-104-78-168-91l-194-41 194-41c64-13 122-45 168-91 46-46 78-104 91-168l41-194 41 194c13 64 45 122 91 168 46 46 105 78 168 91l194 41-194 41c-63 13-122 45-168 91s-78 105-91 168z" horiz-adv-x="1000" />

<glyph glyph-name="arrow-right-1" unicode="&#xe82f;" d="M1257 332a49 49 0 0 0-10-16l-453-453a49 49 0 0 0-68 69l370 370h-1047a49 49 0 0 0 0 97h1047l-370 369a49 49 0 0 0 68 69l453-453a49 49 0 0 0 10-52z" horiz-adv-x="1261" />

<glyph glyph-name="sticky" unicode="&#xe830;" d="M573 37q0-23-15-38t-37-15q-21 0-37 16l-169 169-315-236 236 315-168 169q-24 23-12 56 14 32 48 32 157 0 270 57 90 45 151 171 9 24 36 32t50-13l208-209q21-23 14-50t-32-36q-127-63-172-152-56-110-56-268z" horiz-adv-x="834" />

<glyph glyph-name="pin-outline" unicode="&#xe831;" d="M856 554q30-30 30-73t-30-75q-16-16-36-24-106-51-144-125-51-102-51-246 0-45-29-74t-75-30q-47 0-75 30l-167 169-279-199 199 279-169 168q-20 18-27 49t5 64q27 65 96 65 146 0 246 50l11 7q69 37 118 141 7 20 21 34 30 30 74 29t74-31z m-273-250q53 107 196 175l-205 211q-69-146-176-200l-13-6q-120-57-281-57l416-416q0 168 63 293z" horiz-adv-x="886" />

<glyph glyph-name="clock" unicode="&#xe832;" d="M500 546v-250q0-7-5-12t-13-5h-178q-8 0-13 5t-5 12v36q0 8 5 13t13 5h125v196q0 8 5 13t12 5h36q8 0 13-5t5-13z m232-196q0 83-41 152t-110 111-152 41-153-41-110-111-41-152 41-152 110-111 153-41 152 41 110 111 41 152z m125 0q0-117-57-215t-156-156-215-58-216 58-155 156-58 215 58 215 155 156 216 58 215-58 156-156 57-215z" horiz-adv-x="857.1" />

<glyph glyph-name="phone" unicode="&#xe833;" d="M786 158q0-15-6-39t-12-38q-11-28-68-60-52-28-103-28-15 0-30 2t-32 7-26 8-31 11-28 10q-54 20-97 47-71 44-148 120t-120 148q-27 43-46 97-2 5-10 28t-12 31-8 26-7 32-2 29q0 52 29 104 31 57 59 68 14 6 38 12t39 6q8 0 12-2 10-3 30-42 6-11 16-31t20-35 17-30q2-2 10-14t12-20 4-16q0-11-16-27t-35-31-34-30-16-25q0-5 3-13t4-11 8-14 7-10q42-77 97-132t131-97q1 0 10-6t14-8 11-5 13-2q10 0 25 16t30 34 31 35 28 16q7 0 15-4t20-12 14-10q14-8 30-17t36-20 30-17q39-19 42-29 2-4 2-12z" horiz-adv-x="785.7" />

<glyph glyph-name="calendar-silhouette" unicode="&#xe834;" d="M850 700h-50v100a50 50 0 0 1-100 0v-100h-400v100a50 50 0 0 1-100 0v-100h-50a150 150 0 0 1-150-150v-50h1000v50a150 150 0 0 1-150 150z m-850-700a150 150 0 0 1 150-150h700a150 150 0 0 1 150 150v400h-1000z" horiz-adv-x="1000" />

<glyph glyph-name="user-1" unicode="&#xe835;" d="M411 368c66 0 123 24 170 71 47 47 71 104 71 170 0 66-24 124-71 171-47 46-104 70-170 70-66 0-124-24-170-71s-71-104-71-170c0-66 24-123 71-170 46-47 104-71 170-71z m0 0m421-287c-1 20-4 41-8 63-4 23-9 44-15 64-7 20-16 40-26 59-12 20-25 37-40 51-15 15-34 27-56 36-22 9-47 13-73 13-10 0-20-4-39-17-11-7-25-16-41-26-13-8-30-16-52-23-22-7-43-11-65-11-21 0-43 4-64 11-22 7-40 15-53 23-15 10-29 19-41 26-19 13-29 17-39 17-26 0-50-4-72-13-22-9-41-21-57-36-15-14-28-31-39-51-11-19-20-39-26-59-7-20-12-41-16-64-4-22-7-43-8-63-1-19-2-39-2-59 0-52 17-95 49-126 33-30 75-46 127-46h482c52 0 95 16 127 46 33 31 49 74 49 126 0 20 0 40-2 59z m0 0" horiz-adv-x="1000" />

<glyph glyph-name="clock-1" unicode="&#xe836;" d="M460 810q190 0 325-135t135-325-135-325-325-135-325 135-135 325 135 325 325 135z m0-820q150 0 255 106t105 254q0 150-105 255t-255 105q-148 0-254-105t-106-255q0-148 106-254t254-106z m36 620l0-244 150-150-50-50-170 170 0 274 70 0z" horiz-adv-x="920" />

<glyph glyph-name="label" unicode="&#xe837;" d="M971 371l-450 450c-18 18-43 29-71 29h-350c-55 0-100-45-100-100v-350c0-28 11-53 30-71l450-450c18-18 43-29 70-29s53 11 71 29l350 350c18 19 29 44 29 71 0 28-11 53-29 71z m-796 229c-41 0-75 34-75 75s34 75 75 75 75-33 75-75-33-75-75-75z" horiz-adv-x="1000" />

<glyph glyph-name="speech-bubble" unicode="&#xe838;" d="M145-89h-70l50 50c27 27 43 63 48 101-115 75-173 185-173 300 0 213 195 428 501 428 324 0 497-198 497-409 0-212-175-411-497-411-57 0-115 8-168 21-50-51-117-80-188-80z" horiz-adv-x="1000" />

<glyph glyph-name="play" unicode="&#xe839;" d="M925 394l-800 450c-16 8-35 8-50-1-16-9-25-25-25-43v-900c0-18 9-34 25-43 8-5 16-7 25-7 8 0 17 2 25 6l800 450c15 9 25 26 25 44s-10 35-25 44z" horiz-adv-x="1000" />

<glyph glyph-name="left-quote" unicode="&#xe83a;" d="M333 533c-55 0-100-44-100-100v-60c6 1 11 2 17 2h125c37 0 67-30 67-67v-125c0-36-30-66-67-66h-125c-37 0-67 30-67 66v125l0 1v124c0 83 67 150 150 150h84c14 0 25-11 25-25s-11-25-25-25z m375 0c-55 0-100-44-100-100v-60c6 1 11 2 17 2h125c37 0 67-30 67-67v-125c0-36-30-66-67-66h-125c-37 0-67 30-67 66v125l0 1v124c0 83 67 150 150 150h84c14 0 25-11 25-25s-11-25-25-25z" horiz-adv-x="1000" />

<glyph glyph-name="check-1" unicode="&#xe83b;" d="M500 850c-276 0-500-224-500-500s224-500 500-500 500 224 500 500-224 500-500 500z m253-394l-270-271c-8-8-19-12-30-12s-21 4-29 12l-136 136c-16 16-16 42 0 59 17 16 43 16 59 0l106-106 242 241c16 16 42 16 58 0 17-16 17-43 0-59z m0 0" horiz-adv-x="1000" />

<glyph glyph-name="doc-file" unicode="&#xe83c;" d="M409 222c-30 0-48-29-48-68s18-68 49-68 48 30 48 69c0 36-17 67-49 67z m91 628h-400a100 100 0 0 1-100-100v-800a100 100 0 0 1 100-100h600a100 100 0 0 1 100 100v600z m-242-773c-21-17-54-26-93-26a395 395 0 0 0-52 3v199a409 409 0 0 0 61 4c39 0 64-7 83-22 21-15 34-40 34-76 0-38-14-65-33-82z m149-27c-60 0-95 45-95 103 0 61 39 106 99 106 62 0 96-47 96-102 0-67-41-107-100-107z m233 38a116 116 0 0 1 38 7l7-36c-8-4-27-9-52-9-70 0-106 44-106 101 0 69 50 108 111 108 23 0 41-5 49-9l-9-37a100 100 0 0 1-38 8c-37 0-65-22-65-67 0-40 24-66 65-66z m-140 412h-50v250l250-250z m-321-278a94 94 0 0 1-20-2v-132a83 83 0 0 1 15-1c42 0 69 22 69 71 0 42-24 64-64 64z" horiz-adv-x="800" />

<glyph glyph-name="pdf-file" unicode="&#xe83d;" d="M213 216a74 74 0 0 1-18-2v-59a69 69 0 0 1 15-1c24 0 39 12 39 33 0 18-13 29-36 29z m175-1a93 93 0 0 1-21-1v-131a80 80 0 0 1 16-1c41 0 68 22 68 70 0 42-24 63-63 63z m112 635h-400a100 100 0 0 1-100-100v-800a100 100 0 0 1 100-100h600a100 100 0 0 1 100 100v600z m-225-709c-15-15-38-22-65-22a113 113 0 0 0-15 1v-71h-45v197a376 376 0 0 0 61 4c28 0 48-5 61-16a59 59 0 0 0 21-46c0-20-6-36-18-47z m190-68c-21-18-53-26-92-26a385 385 0 0 0-51 3v196a396 396 0 0 0 61 4c38 0 62-7 82-21 20-16 33-40 33-75 0-39-14-65-33-81z m185 139h-77v-46h72v-37h-72v-80h-45v200h122z m-150 288h-50v250l250-250z" horiz-adv-x="800" />

<glyph glyph-name="bell" unicode="&#xe83e;" d="M808 145a279 279 0 0 0-100 214v116c0 147-109 268-250 288v45a42 42 0 1 1-83 0v-45c-141-20-250-141-250-288v-116a279 279 0 0 0-99-214 73 73 0 0 1 47-128h687a73 73 0 0 1 48 128z m-391-295a157 157 0 0 1 153 125h-306a157 157 0 0 1 153-125z" horiz-adv-x="833" />

<glyph glyph-name="quote-3" unicode="&#xe83f;" d="M435 516v-102c0-197-123-365-296-432-28-10-58 4-68 32l0 0c-9 26 5 54 30 64 111 42 196 138 223 256-37-19-80-28-126-21-92 16-164 92-172 184-11 122 85 224 204 224 114 0 205-92 205-205z m540 0v-102c0-197-123-365-297-432-27-10-58 4-67 32l0 0c-9 26 4 54 30 64 111 42 196 138 222 256-37-19-79-28-125-21-92 16-164 92-173 184-10 122 85 224 205 224 113 0 205-92 205-205z" horiz-adv-x="1000" />

<glyph glyph-name="right-arrow-1" unicode="&#xe840;" d="M993 366l0 0-227 227c-8 10-22 11-32 3-9-8-11-23-2-32 0-1 1-2 2-3l189-188h-900c-13 0-23-11-23-23s10-23 23-23h900l-189-188c-9-8-11-23-2-32s22-11 32-3c1 1 1 2 2 3l227 227c9 9 9 23 0 32z" horiz-adv-x="1000" />

<glyph glyph-name="arrow-righ" unicode="&#xe841;" d="M579 683c-17-3-32-15-36-32 0-3-1-6-1-10 0-9 3-17 8-24 1-2 41-42 113-114l111-111-325 0c-230 0-326 0-329-1-17-2-31-14-35-31-2-6-2-14 0-20 4-17 18-29 35-31 3-1 99-1 329-1l325 0-111-111c-77-77-112-112-113-114-3-4-5-9-7-14-1-6-1-15 0-20 4-15 16-27 31-31 5-1 14-1 19 0 4 1 10 3 13 6 5 3 301 298 304 303 7 11 9 27 4 39-4 8 2 2-156 160-138 138-149 149-153 151-5 3-11 5-16 6-5 0-6 0-10 0z" horiz-adv-x="1000" />

<glyph glyph-name="left" unicode="&#xe842;" d="M271 725c133 0 229-110 229-273-1-236-179-403-435-435-24-3-33 30-11 40 98 43 148 99 155 154 4 41-18 77-46 83-73 18-121 108-121 202 0 126 102 229 229 229z m500 0c133 0 229-110 229-273-1-236-179-403-435-435-24-3-33 30-11 40 98 43 148 99 155 154 4 41-18 77-46 83-73 18-121 108-121 202 0 126 102 229 229 229z" horiz-adv-x="1000" />

<glyph glyph-name="star" unicode="&#xe843;" d="M929 489q0-12-15-27l-202-197 48-279q0-4 0-12 0-11-6-19t-17-9q-10 0-22 7l-251 132-250-132q-12-7-23-7-11 0-17 9t-6 19q0 4 1 12l48 279-203 197q-14 15-14 27 0 21 31 26l280 40 126 254q11 23 27 23t28-23l125-254 280-40q32-5 32-26z" horiz-adv-x="928.6" />

<glyph glyph-name="calendar-1" unicode="&#xe844;" d="M71-79h161v161h-161v-161z m197 0h178v161h-178v-161z m-197 197h161v178h-161v-178z m197 0h178v178h-178v-178z m-197 214h161v161h-161v-161z m411-411h179v161h-179v-161z m-214 411h178v161h-178v-161z m428-411h161v161h-161v-161z m-214 197h179v178h-179v-178z m-196 482v161q0 7-6 12t-12 6h-36q-7 0-12-6t-6-12v-161q0-7 6-13t12-5h36q7 0 12 5t6 13z m410-482h161v178h-161v-178z m-214 214h179v161h-179v-161z m214 0h161v161h-161v-161z m18 268v161q0 7-5 12t-13 6h-35q-7 0-13-6t-5-12v-161q0-7 5-13t13-5h35q8 0 13 5t5 13z m215 36v-715q0-29-22-50t-50-21h-786q-29 0-50 21t-21 50v715q0 29 21 50t50 21h72v54q0 37 26 63t63 26h36q37 0 63-26t26-63v-54h214v54q0 37 27 63t63 26h35q37 0 64-26t26-63v-54h71q29 0 50-21t22-50z" horiz-adv-x="928.6" />

<glyph glyph-name="asterisk" unicode="&#xe845;" d="M960 183l-273 167 273 167c4 3 8 7 9 13s0 11-2 15l-81 131c-5 10-18 13-28 7l-260-159v305c0 12-10 21-21 21h-154c-11 0-20-9-20-21v-305l-261 159c-10 6-22 3-28-7l-81-131c-2-4-3-10-2-15s5-10 9-13l273-167-273-167c-4-3-8-7-9-13-1-5 0-11 2-15l81-131c6-10 18-13 28-7l261 159v-305c0-12 9-21 20-21h154c11 0 21 9 21 21v305l260-159c10-6 23-3 28 7l81 131c3 4 3 10 2 15-1 6-5 10-9 13z" horiz-adv-x="1000" />

<glyph glyph-name="sitemap-(1)" unicode="&#xe846;" d="M338 810c4 0 8 0 12 0 11 0 21 0 32 0 11 0 22 0 33 0 19 0 38 0 56 0 22 0 44 0 65 0 21 0 42 0 63 0 9 0 18 0 26 0 11 0 21 0 32 0 3 0 7 0 11 0 24 0 44 0 63-17 2-1 3-2 5-4 14-17 15-35 15-57 0-3 0-6 0-9 0-8 0-16 0-24 0-8 0-16 0-25 0-14 0-28 0-42 0-16 0-32 0-48 0-16 0-32 0-47 0-7 0-14 0-20 0-8 0-16 0-24 0-3 0-5 0-8 0-16 0-29-9-43-1-1-1-3-2-4-8-13-22-21-37-25-6-1-12-1-18-1-2 0-3 0-5 0-6 0-12 0-18 0-4 0-8 0-12 0-11 0-21 0-32 0-13 0-25 0-38 0-20 0-39 0-58 1 0-35 0-69 0-104 8 0 16 0 25 0 28 0 56 0 84 0 17 0 34 1 51 1 15 0 30 0 45 0 8 0 15 0 23 0 8 0 15 0 22 0 4 0 8 0 12 0 20 0 39-4 54-19 15-17 18-36 18-59 0-2 0-4 0-6 0-6 0-12 0-19 0-4 0-8 0-13 0-10 0-21 0-31 1 0 3 0 5 0 7 0 14 0 21 0 3 0 6 0 9 0 19 1 35 0 51-11 1-1 2-2 3-3 1-1 2-2 3-4 9-13 12-25 12-41 0-3 0-3 0-5 0-6 0-13 0-19 0-4 0-8 0-12 0-9 0-18 0-27 0-11 0-22 0-34 0-9 0-17 0-26 0-4 0-8 0-12 0-6 0-12 0-18 0-3 0-3 0-5 0-17-5-29-17-42-12-11-25-13-41-13-2 0-3 0-5 0-5 0-11 0-16 0-3-1-3-1-6-1-9 0-19 0-29 0-10 0-20 0-30 0-8 0-16 0-24 0-3 0-7 0-11 0-5 0-10 0-15 0-2 0-3 0-5 0-14 0-25 5-37 13-15 15-17 30-17 51 0 1 0 3 0 5 0 6 0 12 0 17 0 2 0 4 0 6 0 11 0 22 0 32-1 11-1 22-1 33 0 8 0 16 0 25 0 4 0 8 0 12 0 48 0 48 17 66 18 15 36 14 58 13 3 0 6 0 9 0 7 0 15 0 23 0-1 11-1 22-1 34 0 4 0 8 0 12 0 5 0 11-1 16 0 3 0 3 0 6 0 9 0 18-4 27-8 6-13 7-22 7-2 0-4 0-7 0-2 0-5 0-7 0-3 0-6 0-9 0-7 0-14 0-22 0-7 0-15 0-23 0-14 0-29 0-43 0-17 0-34 1-50 1-34 0-68 0-102 0 0-34 0-68 0-103 21 0 21 0 42 0 15 0 27 0 40-8 1-1 3-3 5-4 8-7 16-18 16-29 0-2 0-2 0-5 0-2 0-2 0-4 0-2 0-4 0-6 0-2 0-4 0-6 0-6 0-12 1-18 0-2 0-4 0-7 0-11 0-22 0-33 0-12 0-24 0-35 0-9 0-18 0-27 0-5 0-9 0-13 0-6 0-12 0-18 0-3 0-3 0-5 0-15-4-29-15-40-19-17-41-15-65-15-4 0-7 0-11 0-8 0-15 0-23 0-10 0-20 0-30 0-7 0-15 0-22 0-4 0-8 0-11 0-43 0-43 0-60 15-11 11-15 25-15 39 0 2 0 4 0 6 0 2 0 3 0 5 0 6 0 13 0 19 0 4 0 8 0 13 0 9 0 18 0 27 0 11 0 23 0 34 0 9 0 18 0 27 0 4 0 9 0 13 0 6 0 12 0 18 0 2 0 2 0 5 0 15 5 28 15 39 2 1 3 2 5 3 1 1 2 2 4 3 10 6 18 7 30 7 1 0 2 0 4 0 4 0 9 0 14 0 16 0 16 0 33 0 0 34 0 68 0 103-36 0-72 0-108 0-16 0-33-1-49-1-15 0-29 0-44 0-7 0-15 0-23 0-7 0-14 0-21 0-4 0-8 0-12 0-4 0-4 0-7 0-2 0-4 0-6 0-7-1-10-3-16-7-4-10-4-21-4-33 0-1 0-3 0-5-1-6-1-12-1-17 0-4 0-8 0-12 0-9 0-19 0-28 1 0 3 0 5 0 8 0 15 0 22 0 3 0 6 0 9 0 21 1 38 1 54-14 12-12 16-26 16-43 0-3 0-3 0-5 0-2 0-4 0-5 0-6 0-12 0-18 0-4 0-8 0-12 0-8 0-17 0-25 0-11 0-22 0-33 0-8 0-16 0-25 0-4 0-8 0-12 0-5 0-11 0-17 0-1 0-3 0-4 0-18-6-35-19-47-12-9-23-12-39-12-2 0-3 0-5 0-5 0-11 0-16 0-3-1-3-1-6-1-10 0-19 0-29 0-10 0-20 0-30 0-8 0-16 0-24 0-3 0-7 0-11 0-5 0-10 0-15 0-3 0-3 0-5 0-16 0-30 6-41 17-8 9-13 21-13 33 0 1 0 3 0 5 0 2 0 2 0 5 0 2 0 4 0 5 0 7 0 13 0 19 0 2 0 4 0 6-1 11-1 22-1 33 0 9 0 18 0 28 0 11 0 22 0 33 0 4 0 8 0 12 0 44 0 44 15 62 2 1 3 3 4 4 2 1 3 2 5 4 10 6 20 7 31 7 2 0 3 0 5 0 4 0 9 0 13 0 3 0 6 0 9 0 8 0 15 0 23 0 0 1 0 2 0 3-1 12-1 23-1 35 0 4 0 8 0 13 0 6 0 12 0 18 0 3 0 3 0 6 0 21 5 37 19 53 13 11 26 19 45 19 2 0 4 0 7 0 2 0 5-1 8-1 2 0 5 0 8 0 8 0 15 0 23 0 8 0 16 0 23 0 15 0 30 0 45 0 17 0 34 0 51 0 35 0 71 0 106 0 0 2 0 3 0 5-1 15-1 31-1 46 0 8 0 16 0 24 0 8 0 16 0 23 0 3 0 6 0 9 0 4 0 8 0 13 0 2 0 4 0 7 1 7 3 10 8 16 6 3 10 4 17 4 2 0 2 0 5 0 2 0 2 0 5 0 2 0 4 0 6 0 4 0 8 0 13 0 6 0 13 0 20 0 16 0 33 0 49 1 14 0 28 0 42 0 6 0 13 0 19 0 4 0 8 0 12 0 3 0 3 0 6 0 2 0 2 0 5 0 1 0 3 0 4 0 5 1 8 2 12 4 5 7 5 12 5 20 0 2 0 5 0 7 0 3 0 5 0 8 0 3 0 5 0 8 0 8 0 15 0 23 0 5 0 9 0 14 0 16 0 33 0 49 0 16 0 31 0 46 0 13 0 26 0 40 0 7 0 15 0 23 0 8 0 15 0 22 0 3 0 6 0 8 0 4 0 8 0 12 0 2 0 4 0 6-1 7-4 10-9 15-7 3-13 2-21 2-1 0-3 0-4 0-6 0-11 0-16 0-4 0-8 0-11 0-11 0-21 0-31 1-6 0-13 0-19 0-20 0-40 0-60 0-23 0-46 0-69 0-18 0-36 0-54 0-10 0-21 0-32 0-10 0-20 0-30 0-3 0-7 0-11 0-5 0-10 0-15 0-1 0-3 0-4 0-9 0-14-1-21-7-5-7-5-9-5-17 0-2 0-5 0-7 0-3 0-6 0-8 0-3 0-6 0-8 0-8 0-16 0-23 0-8 0-16 0-24 0-13 0-26 0-40 0-15 0-30 0-46 0-13 0-26 0-39 0-8 0-16 0-24 0-7 0-15 0-22 0-3 0-5 0-8 0-4 0-7 0-11 0-2 0-4 0-6 1-6 2-9 5-14 6-4 12-4 19-4 2 0 5 0 7 0 4 0 4 0 7 0 4 0 8 0 12 0 9 0 19 0 28 0 6 0 11 0 16-1 5 0 10 0 15 0 3 0 5 0 7 0 3 0 3 0 6 0 8-1 13-4 19-9 4-6 3-11 3-18-1-7-3-10-8-14-6-3-10-3-16-3-3 0-5 0-8 0-3 0-5 0-8 0-2 0-2 0-4 0-8 0-15 0-23 0-7 0-15 0-22 0-6 0-12 0-18 0-3 0-6 0-8 0-17-1-30 0-44 8-1 1-2 2-4 3-13 8-21 22-25 36 0 7 0 7 0 13-1 3-1 5-1 8 0 3 0 5 0 8 0 3 0 6 0 9 0 8 0 16 0 24 0 5 0 10 0 15 0 16 0 31 0 47 0 18 0 36 0 54 0 14 0 28 0 42 0 8 0 17 0 25 0 8 0 16 0 24 0 2 0 5 0 8-1 22 4 40 19 57 20 18 45 17 70 17z m-252-692c-3-7-3-14-3-21 0-1 0-3 0-5 0-6 0-11 0-17 0-4 0-7 0-11 0-8 0-17 0-25 0-10 0-21 0-31 0-8 0-16 0-24 0-4 0-8 0-12 0-5 0-10 0-16 0-1 0-3 0-5 0-5 0-10 3-15 6-3 12-3 18-3 3 0 3 0 5 0 5 0 10 0 15 0 3 0 6 0 10 0 7 0 14 0 21 0 9 0 18 0 27 0 7 0 14 0 21 0 4 0 7 0 11 0 4 0 9 0 14 0 1 0 2 0 4 0 7 0 10 1 16 5 3 7 2 14 2 21 0 2 0 4 0 5 0 6 0 11 0 16 0 4 0 8 0 11 1 8 1 16 1 24 0 10 0 19 0 29 0 8 0 16 0 23 0 4 0 8 0 11 0 5 0 10 0 16 0 1 0 3 0 4 0 9-1 15-7 22-5 1-9 1-15 1-2 0-2 0-4 0-5 0-10 0-15 0-3 0-7 0-10 0-7 0-15 0-22 0-9 0-18 0-28 0-7 0-14 0-21 0-3 0-7-1-10-1-5 0-10 0-14 0-2 0-3 0-5 0-5 0-9 0-14-2z m332-2c0-6-1-11-1-17 0-2 0-3 0-5 0-6 0-11 0-17 0-4 0-8 0-12 0-8 0-16 0-24 0-11 0-22 0-32 0-8 0-16 0-24 0-4 0-8 0-12 0-6 0-11 0-16 0-2 0-4 0-5 0-8 0-8 4-16 5-4 11-3 17-3 2 0 3 0 5 0 5 0 10 0 15 0 3 0 6 0 10 0 7 0 14 0 21 0 9 0 18 0 27 0 7 0 14 0 21 0 4 0 7 0 11 0 4 0 9 0 14 0 1 0 2 0 4 0 7 0 7 0 14 3 4 6 3 13 3 21 0 1 0 3 0 5 0 5 0 11 0 17 0 4 0 8 0 11 0 9 0 17 0 25 0 11 0 21 0 32 0 8 0 16 0 24 0 4 0 8 0 12 0 5 0 11 0 16 0 2 0 3 0 5 0 9 0 9-5 16-5 0-10 0-15 0-1 0-3 0-4 0-5 0-10 0-15 0-4 0-7 0-11 0-7 0-14 0-22 0-9 0-18 0-28 0-7 0-14 0-21 0-4 0-7 0-11 0-5 0-10 0-14 0-3 0-3 0-5 0-8 0-8 0-14-4z m334 0c-3-8-3-15-3-22 0-2 0-4 0-5 0-6 0-11 0-16 0-4 0-8 0-11 0-8 0-16 0-23 0-10 0-20 0-30 0-8 0-15 0-23 0-4 0-7 0-11 0-5 0-10 1-15 0-2 0-3-1-5 1-7 1-13 5-19 6-3 12-2 18-2 2 0 2 0 5 0 5 0 9 0 14 0 4 0 7 0 11 0 7-1 14-1 21-1 9 0 18 0 27 0 7 0 14 0 21 0 4 0 7 0 10 0 5 0 10 0 15 0 1 0 2 0 4 0 5 0 9 0 14 3 3 6 3 13 3 20 0 2 0 4 0 5 0 6 0 12 0 17 0 4 0 8 0 12 0 8 0 16 0 24 0 11 0 21 0 32 0 8 0 16 0 24 0 3 0 7 0 11 0 5 0 11 0 16 0 2 0 3 0 5 0 6 0 10-3 16-6 3-12 2-19 2-1 0-3 0-4 0-5 0-10 0-15 0-3 1-7 1-10 1-7 0-15 0-22 0-9 0-18 0-28 0-7 0-14 0-21 0-3 0-7 0-10 0-5 0-10 0-14 0-2 0-3 0-5 0-6 0-9-1-14-5z m-354 568c2 0 2 0 5 0 2 0 4 0 6 0 3 0 5 0 7 0 7 0 14 0 21 0 3 1 5 1 8 1 11 0 23 0 35 0 13 0 26 0 40 0 11 0 23 0 34 0 5 0 10 0 15 0 7 0 14 0 21 0 2 0 4 0 6 0 11 0 18-1 27-9 4-7 3-15 2-23-4-6-7-9-14-12-3 0-6 0-8 0-3 0-3 0-6 0-3 0-3 0-6 0-2 0-5 0-7 0-7 0-14 0-21 0-3 0-5 0-8 0-11 0-23 0-34-1-14 0-27 0-40 0-12 0-24 0-35 0-5 0-10 0-15 0-7 0-14 0-21 0-2 0-4 0-6 0-11 0-18 1-27 9-4 7-3 15-2 23 7 9 12 12 23 12z m2-103c1 0 3 0 5 0 3 0 3 0 6 0 3 0 3 0 7 0 7 0 14 0 21 0 5 0 10 0 14 0 9 0 18 0 27 0 12 0 24 0 36 0 12 0 25 0 38 0 4 0 9 0 14 0 7 0 14 0 20 0 2 0 4 0 6 0 10 0 17 0 25-6 1-1 2-2 4-3 4-6 3-11 3-18-1-7-4-10-9-14-4-3-7-3-13-3-2 0-3 0-5 0-3 0-5 0-7 0-3 0-3 0-6 0-8 0-15 0-22 0-3 0-5 0-8 0-12 0-23 0-35 0-14 0-27 0-41 0-12 0-24 0-35 0-5 0-10 0-15 0-7 0-14 0-21 0-2 0-5 0-7 0-14 0-14 0-21 4-7 8-7 13-7 23 1 5 1 5 6 11 6 5 11 6 20 6z" horiz-adv-x="1000" />

<glyph glyph-name="phone-call" unicode="&#xe847;" d="M790 231c-20 21-45 32-71 32-26 0-51-11-72-32l-67-67c-5 3-11 6-16 9-8 4-15 7-21 11-62 40-119 91-174 158-26 34-44 62-57 90 18 16 34 32 49 48 6 6 12 12 18 18 44 45 44 102 0 146l-58 58c-6 6-13 13-19 20-13 13-26 27-40 39-20 20-45 31-71 31s-50-11-71-31c-1 0-1 0-1 0l-72-73c-27-27-42-60-45-98-6-61 13-119 27-156 34-93 85-178 161-270 93-110 204-197 331-259 48-23 113-50 186-55 4 0 9 0 13 0 49 0 90 17 122 52 0 1 0 1 0 1 11 14 24 26 37 39 10 8 19 17 28 27 21 22 32 47 32 73 0 26-11 51-33 72l-116 117z m76-223c0 0 0 0 0 0-8-9-17-17-26-26-14-13-27-26-41-42-21-23-46-33-79-33-3 0-6 0-10 0-62 4-121 28-164 49-120 58-225 140-312 244-72 87-120 167-152 253-19 53-27 94-23 133 2 24 11 45 29 62l72 72c10 10 21 15 32 15 13 0 24-8 31-15 0 0 0 0 0 0 13-12 25-25 38-38 7-7 14-13 20-20l58-58c22-22 22-43 0-65-6-7-12-13-18-19-18-18-35-35-53-51-1-1-1-1-1-1-18-18-15-36-11-48 0-1 0-1 0-2 15-36 36-70 69-111l0 0c58-72 119-128 187-171 9-5 18-10 26-14 8-4 15-7 21-11 1-1 2-1 3-2 7-3 14-5 20-5 18 0 29 11 33 15l72 72c7 7 18 16 32 16 13 0 23-9 30-16 0 0 0 0 0 0l117-117c21-21 21-43 0-66z m-326 604c56-9 106-35 146-75s66-91 76-146c2-14 14-24 28-24 1 0 3 1 5 1 15 2 26 17 23 33-11 67-43 128-91 176s-110 80-177 91c-15 3-30-7-33-23s8-30 23-33z m459-203c-19 110-71 210-151 290s-180 132-290 151c-15 2-30-8-33-24-2-15 8-30 24-33 98-16 188-63 259-134 72-71 118-161 135-259 2-14 14-24 28-24 2 0 3 0 5 0 15 3 26 18 23 33z" horiz-adv-x="1000" />

<glyph glyph-name="location-1" unicode="&#xe848;" d="M667 189c106 167 93 146 96 151 39 54 59 119 59 186 0 178-144 324-322 324-177 0-322-146-322-324 0-67 21-133 61-189l94-148c-101-15-272-61-272-163 0-37 24-90 139-131 81-29 187-45 300-45 211 0 440 59 440 176 0 102-172 148-273 163z m-379 181c-1 0-1 1-1 1-34 46-51 100-51 155 0 146 118 265 264 265 145 0 264-119 264-265 0-55-17-107-48-152-3-4 11 19-216-338l-212 334z m212-461c-230 0-381 67-381 117 0 33 77 88 249 109l107-169c6-8 15-14 25-14s19 6 25 14l107 169c172-21 249-76 249-109 0-49-149-117-381-117z m0 763c-81 0-146-65-146-146s65-147 146-147c81 0 147 66 147 147s-66 146-147 146z m0-234c-48 0-88 39-88 88s40 88 88 88 88-40 88-88-39-88-88-88z" horiz-adv-x="1000" />

<glyph glyph-name="bookmark" unicode="&#xe849;" d="M650 779q12 0 24-5 19-8 29-23t11-35v-719q0-19-11-35t-29-23q-10-4-24-4-27 0-47 18l-246 236-246-236q-20-19-46-19-13 0-25 5-18 7-29 23t-11 35v719q0 19 11 35t29 23q12 5 25 5h585z" horiz-adv-x="714.3" />

<glyph glyph-name="menu-dots" unicode="&#xe84a;" d="M310 461c-32 0-50 0-63 2-7 1-10 1-11 2-1 1-1 1-2 2 0 1-1 4-2 11-1 13-1 31-1 62s0 50 1 63c1 7 2 10 2 11 1 1 1 1 2 2 1 0 4 1 11 2 13 1 31 2 63 2s49-1 62-2c7-1 10-2 11-2 1-1 2-1 2-2 1-1 1-4 2-11 2-13 2-31 2-63s0-49-2-62c-1-7-1-10-2-11 0-1-1-1-2-2-1-1-4-1-11-2-13-2-31-2-62-2z m-74 4c0 0 0 0 0 0 0 0 0 0 0 0z m-2 2c0 0 0 0 0 0 0 0 0 0 0 0z m0 147c0 0 0 0 0 0 0 0 0 0 0 0z m2 2c0 0 0 0 0 0 0 0 0 0 0 0z m147 0c0 0 0 0 0 0 0 0 0 0 0 0z m2-2c0 0 0 0 0 0 0 0 0 0 0 0z m0-147c0 0 0 0 0 0 0 0 0 0 0 0z m-2-2c0 0 0 0 0 0 0 0 0 0 0 0z m-215 75c0 60 0 90 15 110 5 7 10 12 17 17 20 15 50 15 110 15s89 0 110-15c6-5 11-10 16-17 15-20 15-50 15-110s0-89-15-110c-5-6-10-11-16-16-21-15-51-15-110-15s-90 0-110 15c-7 5-12 10-17 16-15 21-15 51-15 110z m142-459c-32 0-50 0-63 1-7 1-10 2-11 2-1 1-1 1-2 2 0 1-1 4-2 11-1 13-1 31-1 63s0 49 1 62c1 7 2 10 2 11 1 1 1 2 2 2 1 1 4 1 11 2 13 2 31 2 63 2s49 0 62-2c7-1 10-1 11-2 1 0 2-1 2-2 1-1 1-4 2-11 2-13 2-31 2-62s0-50-2-63c-1-7-1-10-2-11 0-1-1-1-2-2-1 0-4-1-11-2-13-1-31-1-62-1z m-74 3c0 0 0 0 0 0 0 0 0 0 0 0z m-2 2c0 0 0 0 0 0 0 0 0 0 0 0z m0 147c0 0 0 0 0 0 0 0 0 0 0 0z m2 2c0 0 0 0 0 0 0 0 0 0 0 0z m147 0c0 0 0 0 0 0 0 0 0 0 0 0z m2-2c0 0 0 0 0 0 0 0 0 0 0 0z m0-147c0 0 0 0 0 0 0 0 0 0 0 0z m-2-2c0 0 0 0 0 0 0 0 0 0 0 0z m-215 76c0 59 0 89 15 110 5 6 10 11 17 16 20 15 50 15 110 15s89 0 110-15c6-5 11-10 16-16 15-21 15-51 15-110s0-90-15-110c-5-7-10-12-16-17-21-15-51-15-110-15s-90 0-110 15c-7 5-12 10-17 17-15 20-15 50-15 110z m460-78c13-1 31-1 62-1s50 0 63 1c7 1 10 2 11 2 1 1 1 1 2 2 0 1 1 4 2 11 1 13 2 31 2 63s-1 49-2 62c-1 7-2 10-2 11-1 1-1 2-2 2-1 1-4 1-11 2-13 2-31 2-63 2s-49 0-62-2c-7-1-10-1-11-2-1 0-1-1-2-2-1-1-1-4-2-11-2-13-2-31-2-62s0-50 2-63c1-7 1-10 2-11 1-1 1-1 2-2 1 0 4-1 11-2z m-11 2c0 0 0 0 0 0 0 0 0 0 0 0z m-2 2c0 0 0 0 0 0 0 0 0 0 0 0z m0 147c0 0 0 0 0 0 0 0 0 0 0 0 0 0 0 0 0 0 0 0 0 0 0 0z m2 2c0 0 0 0 0 0 0 0 0 0 0 0z m147 0c0 0 0 0 0 0 0 0 0 0 0 0z m2-2c0 0 0 0 0 0 0 0 0 0 0 0z m0-147c0 0 0 0 0 0 0 0 0 0 0 0 0 0 0 0 0 0 0 0 0 0 0 0z m-2-2c0 0 0 0 0 0 0 0 0 0 0 0 0 0 0 0 0 0z m-200 186c-15-21-15-51-15-110s0-90 15-110c5-7 10-12 16-17 21-15 51-15 110-15s90 0 110 15c7 5 12 10 17 17 15 20 15 50 15 110s0 89-15 110c-5 6-10 11-17 16-20 15-50 15-110 15s-89 0-110-15c-6-5-11-10-16-16z m126 191c-31 0-49 0-62 2-7 1-10 1-11 2-1 1-1 1-2 2-1 1-1 4-2 11-2 13-2 31-2 62s0 50 2 63c1 7 1 10 2 11 1 1 1 1 2 2 1 0 4 1 11 2 13 1 31 2 62 2s50-1 63-2c7-1 10-2 11-2 1-1 1-1 2-2 0-1 1-4 2-11 1-13 2-31 2-63s-1-49-2-62c-1-7-2-10-2-11-1-1-1-1-2-2-1-1-4-1-11-2-13-2-31-2-63-2z m-73 4c0 0 0 0 0 0 0 0 0 0 0 0z m-2 2c0 0 0 0 0 0 0 0 0 0 0 0 0 0 0 0 0 0z m0 147c0 0 0 0 0 0 0 0 0 0 0 0z m2 2c0 0 0 0 0 0 0 0 0 0 0 0z m147 0c0 0 0 0 0 0 0 0 0 0 0 0z m2-2c0 0 0 0 0 0 0 0 0 0 0 0z m0-147c0 0 0 0 0 0 0 0 0 0 0 0 0 0 0 0 0 0z m-2-2c0 0 0 0 0 0 0 0 0 0 0 0z m-215 75c0 60 0 90 15 110 5 7 10 12 16 17 21 15 51 15 110 15s90 0 110-15c7-5 12-10 17-17 15-20 15-50 15-110s0-89-15-110c-5-6-10-11-17-16-20-15-50-15-110-15s-89 0-110 15c-6 5-11 10-16 16-15 21-15 51-15 110z" horiz-adv-x="1000" />

<glyph glyph-name="calendar-(2)" unicode="&#xe84b;" d="M469 664h-156v28c0 18-14 32-32 32s-31-14-31-32v-28h-31c-25 0-49-10-67-28-17-17-27-41-27-66v-501c0-25 10-49 27-67 18-17 42-27 67-27h562c25 0 49 10 66 27 18 18 28 42 28 67v501c0 25-10 49-28 66-17 18-41 28-66 28h-31v30c0 17-14 31-31 31s-31-14-31-31v-30h-157v30c0 17-14 31-31 31s-31-14-31-31z m343-252v-343c0-9-3-17-9-22-6-6-14-10-22-10-131 0-432 0-562 0-9 0-17 4-23 10-5 5-9 13-9 22v343z m-62 189v-32c0-17-14-31-31-31s-31 14-31 31v32h-157v-33c0-18-14-32-31-32s-31 14-31 32v33h-156v-33c0-18-14-32-32-32s-31 14-31 32v33h-31c-9 0-17-3-23-9-5-6-9-14-9-22v-95h625v95c0 8-3 16-9 22-6 6-14 9-22 9z m-469-282h63v-62h-63z m0-125h63v-63h-63z m125 125h63v-62h-63z m0-125h63v-63h-63z m125 125h63v-62h-63z m0-125h63v-63h-63z m125 125h63v-62h-63z m0-125h63v-63h-63z" horiz-adv-x="1000" />

<glyph glyph-name="heart-empty" unicode="&#xe84c;" d="M929 517q0 46-12 80t-31 55-46 33-52 18-55 4-62-14-62-36-48-40-34-34q-10-13-27-13t-27 13q-14 15-34 34t-48 40-62 36-62 14-55-4-52-18-46-33-31-55-12-80q0-93 105-198l324-312 324 312q105 105 105 198z m71 0q0-123-128-251l-347-335q-10-10-25-10t-25 10l-348 336q-5 5-15 15t-31 37-38 54-30 67-13 77q0 123 71 192t196 70q34 0 70-12t67-33 54-38 42-38q20 20 42 38t54 38 67 33 70 12q125 0 196-70t71-192z" horiz-adv-x="1000" />

<glyph glyph-name="building-(1)" unicode="&#xe84d;" d="M499 820c2 0 4 0 6 0 102-1 195-43 267-115 45-46 76-105 93-166 0-2 1-3 1-4 8-30 10-60 10-90 0-2 0-3 0-5 0-25-1-48-7-72 0-3 0-3-1-6-23-101-77-191-142-270-5-5-9-10-13-15-7-9-14-17-21-25-4-4-8-9-12-13-5-6-11-12-16-18-4-3-7-7-10-10-13-16-28-30-43-43-4-3-7-6-10-10-8-7-15-14-23-20-2-2-4-4-6-6-14-12-28-24-43-35-1-2-3-3-5-5-2-1-4-3-6-4-1-1-3-3-5-4-7-4-13-4-21-3-5 3-8 5-12 9-1 1-2 2-3 3-3 1-5 3-7 5-5 4-9 8-14 11-3 3-7 6-11 9-1 1-2 2-3 3-17 14-33 29-50 45-4 4-9 8-13 12-17 15-33 31-48 48-3 4-6 7-10 11-7 7-14 14-20 22-2 2-3 4-5 6-14 15-26 32-39 48-3 4-6 8-9 12-23 30-43 62-60 94-2 4-4 8-6 11-32 58-57 127-57 193 0 2 0 3 0 5-2 108 33 204 108 282 48 48 108 81 172 99 2 0 3 0 4 1 30 7 60 10 90 10z m-177-159c-1-2-3-3-5-5-5-4-9-9-14-13-2-1-3-2-4-4-53-50-78-122-80-193-2-76 31-145 81-199 52-53 123-83 197-84 76 0 148 30 202 84 33 33 58 74 71 120 1 2 1 2 2 5 6 24 8 47 8 71 0 2 0 3 0 4 0 21-1 41-7 61 0 2 0 3-1 4-11 47-34 88-67 123-1 1-2 2-3 3-51 55-122 83-196 87-65 2-135-21-184-64z m148-44c1 0 3 0 5 0 3 0 3 0 5 0 2 0 4 0 6 0 7 0 13 0 20 0 4 0 9 0 13 0 10 0 19 0 29 0 12 0 24 0 36 0 10 0 19 0 28 0 5 0 9 0 14 0 6 0 12 0 19 0 2 0 2 0 5 0 3 0 3 0 6 0 1 0 2 0 4 0 6-2 8-4 12-9 1-6 1-6 1-13 0-2 0-3 0-5 0-4 0-9 0-13 0-3 0-6 0-10 0-8 0-17 0-26 0-9 0-18 0-27 0-16 0-31 0-46 0-18 0-36 0-54 0-15 0-30 0-46 0-9 0-18 0-27 0-8 0-17 0-26 0-3 0-6 0-9 0-4 0-9 0-13 0-2 0-5 0-7-1-7-3-10-9-14-6-1-6-1-13-1-3 0-3 0-7 0-4 0-4 0-8 0-2 0-5 1-8 1-6 0-12 0-19 0 0 1 0 2 0 3 0 12 0 24 0 36 0 5 0 9 0 14 0 6-1 13-1 19 0 2 0 4 0 6 0 2 0 4 0 6 0 2 0 3 0 5-1 5-2 10-4 14-8 5-16 5-24 5-2 0-3 0-5 0-2 0-5 0-8 0-4 0-9 0-13 0-3 0-6 0-8 0-4 0-4 0-8 0-7-1-11-1-16-5-4-6-5-12-5-19 0-2 0-4 0-6 0-2 0-4 0-6 0-2 0-4 0-6 0-7-1-13-1-20 0-4 0-9 0-13 0-11 0-22 0-33-21 0-42 0-63 0 0 44 0 87 0 131 0 20 0 40 0 61 0 17-1 35-1 53 0 9 0 18 0 28 0 9 0 17 0 26 0 3 0 7 0 10 0 4 0 9 0 13 0 3 0 5 0 8 1 6 1 6 5 11 4 3 7 4 13 4z m51-69c-6-8-6-17-5-26 3-9 3-9 9-14 8-1 11-1 17 4 6 8 6 16 5 26-3 8-3 8-10 13-7 1-10 1-16-3z m62 0c-6-8-6-17-5-26 3-9 3-9 10-14 7-1 10-1 16 4 6 8 6 16 5 26-3 8-3 8-9 13-8 1-11 1-17-3z m-62-78c-6-8-6-17-5-26 3-9 3-9 9-14 8-1 11-1 17 4 6 8 6 16 5 25-3 9-3 9-10 14-7 1-10 1-16-3z m62 0c-6-8-6-17-5-26 3-9 3-9 10-14 7-1 10-1 16 4 6 8 6 16 5 25-3 9-3 9-9 14-8 1-11 1-17-3z m-247 68c28 0 57 0 86 0 0-88 0-176 0-266-28 0-57 0-86 0-9 9-9 9-9 18 0 2 0 4 0 6 0 3 0 5 0 7 0 3 0 5 0 8 0 6 0 13 0 20 0 7 0 14 0 21 0 11 0 23 0 35 0 13 0 27 0 40 0 12 0 23 0 35 0 7 0 14 0 21 0 8 0 15 0 23 0 2 0 5 0 7 0 2 0 4 0 6 0 2 0 4 0 6 1 5 1 5 9 13z m29-68c-6-8-7-17-6-26 3-9 3-9 10-14 7-1 11-1 16 4 6 8 7 16 6 25-3 9-3 9-10 14-7 1-11 1-16-3z m0-79c-6-7-7-16-6-25 3-9 3-9 10-14 7-1 11-1 16 4 6 7 7 16 6 25-3 9-3 9-10 14-7 1-11 1-16-4z" horiz-adv-x="1000" />

<glyph glyph-name="left-arrow-1" unicode="&#xe84e;" d="M324 350l434 434c15 15 15 40 0 55-15 15-39 15-54 0l-462-462c-15-15-15-39 0-54l462-462c15-15 39-15 54 1 15 15 15 38 0 53l-434 435z" horiz-adv-x="1000" />

<glyph glyph-name="next" unicode="&#xe84f;" d="M759 377l-463 462c-15 15-40 15-55 0-15-15-15-40 0-55l435-434-435-434c-15-15-15-39 0-55 8-7 18-11 28-11 10 0 20 4 27 11l463 462c7 7 11 17 11 27s-4 20-11 27z" horiz-adv-x="1000" />

<glyph glyph-name="account-(1)" unicode="&#xe850;" d="M498 819c2 0 4 0 6 0 28 0 55 0 82-6 3-1 3-1 6-1 90-19 168-61 235-124 2-1 3-2 4-3 26-25 48-54 67-85 2-2 2-2 3-4 31-49 51-105 62-162 0-2 1-3 1-5 22-119-9-247-76-346-13-17-26-33-40-49-4-4-7-8-11-12-71-82-187-132-294-141-14-1-28-1-42-1-1 0-3 0-5 0-47 1-91 7-137 21-1 0-3 1-4 1-56 17-107 46-152 83-1 1-2 2-3 3-25 20-47 42-67 67-2 3-2 3-5 6-61 77-96 175-99 273 0 2 0 3 0 4-3 111 34 225 106 309 2 2 3 4 5 6 20 24 41 45 65 64 2 2 4 3 6 5 81 65 184 98 287 97z m-189-112c-3-1-5-2-7-3-28-15-53-33-75-55-3-2-6-5-8-7-71-62-114-160-123-253-1-6-1-11-1-17 0-1 0-3 0-5-1-87 18-168 67-242 8 4 12 8 18 14 65 61 148 101 236 117 2 1 3 1 5 1 116 22 244-6 340-72 21-15 41-31 59-48 8-8 8-8 18-12 3 5 5 9 8 13 1 1 2 3 2 4 33 56 56 121 57 186 0 1 0 3 0 5 1 108-30 208-104 288-4 4-7 8-11 12-63 72-166 116-260 122-78 5-153-11-221-48z m306-50c38-31 67-74 73-123 3-56-6-104-42-148-32-37-75-64-125-68-57-2-106 10-149 49-35 33-58 76-60 125-2 56 12 103 51 144 67 69 175 80 252 21z" horiz-adv-x="1000" />

<glyph glyph-name="main-menu" unicode="&#xe851;" d="M958 121c0-104-84-188-187-188s-188 84-188 188 84 187 188 187 187-84 187-187z m-541 42v-84c0-80-66-146-146-146h-83c-81 0-146 66-146 146v84c0 80 65 145 146 145h83c80 0 146-65 146-145z m-42 0c0 57-47 104-104 104h-83c-58 0-105-47-105-104v-84c0-57 47-104 105-104h83c57 0 104 47 104 104z m583 458v-83c0-81-65-146-145-146h-84c-80 0-146 65-146 146v83c0 80 66 146 146 146h84c80 0 145-66 145-146z m-41 0c0 57-47 104-104 104h-84c-57 0-104-47-104-104v-83c0-58 47-105 104-105h84c57 0 104 47 104 105z m-500 0v-83c0-81-66-146-146-146h-83c-81 0-146 65-146 146v83c0 80 65 146 146 146h83c80 0 146-66 146-146z m-42 0c0 57-47 104-104 104h-83c-58 0-105-47-105-104v-83c0-58 47-105 105-105h83c57 0 104 47 104 105z" horiz-adv-x="1000" />

<glyph glyph-name="graph" unicode="&#xe852;" d="M846-82h-731c-9 0-16-7-16-16s7-15 16-15h731c9 0 16 7 16 15s-7 16-16 16z m-713 225c-9 0-16-7-16-15v-161c0-8 7-15 16-15h110c9 0 16 7 16 15v161c0 8-7 15-16 15z m95-160h-80v129h80z m91 214c-9 0-16-7-16-16v-214c0-8 7-15 16-15h110c9 0 16 7 16 15v214c0 9-7 16-16 16z m95-214h-80v182h80z m99 300c-9 0-16-7-16-15v-301c0-9 7-16 16-16h110c9 0 16 7 16 16v301c0 8-7 15-16 15z m94-300h-79v269h79z m90 464v-480c0-9 7-16 15-16h111c8 0 15 7 15 16v480c0 9-7 16-15 16h-111c-8 0-15-7-15-16z m31-16h79v-448h-79z m-598-232h1l15 1c136 9 268 55 379 134 107 75 193 177 248 296l18-49c3-7 9-10 15-10 2 0 4 0 5 1 8 3 12 12 9 20l-33 88c-1 4-4 7-8 9s-8 2-12 0l-88-33c-8-3-13-12-9-20s12-13 20-9l57 21c-53-116-135-215-240-288-107-76-232-120-363-128l-15-1c-9-1-15-8-15-17 1-8 8-15 16-15z" horiz-adv-x="1000" />

<glyph glyph-name="circle" unicode="&#xe853;" d="M877 666a16 16 0 0 1-23 0l-287-297a16 16 0 0 1 11-27h406a16 16 0 0 1 16 16 440 440 0 0 1-123 308z m-262-293l250 259a408 408 0 0 0 104-259z m-105 25a16 16 0 0 1 17 4l297 298a16 16 0 0 1 0 22 432 432 0 0 1-308 128 16 16 0 0 1-16-16v-421a16 16 0 0 1 10-15z m21 421a400 400 0 0 0 259-108l-259-261z m313-524h-399v399a16 16 0 0 1-15 15 430 430 0 1 1 429-429 16 16 0 0 1-15 15z m-414-414a398 398 0 0 0-16 797v-398a16 16 0 0 1 16-16h398a399 399 0 0 0-398-383z" horiz-adv-x="1000" />

<glyph glyph-name="bell-(1)" unicode="&#xe854;" d="M519 848c12-7 20-17 24-31 0-6 0-6 0-13 0-3 0-3 0-7 0-4 0-4 0-7 0-3 0-5 0-8 0-6 0-12 0-18 2 0 3 0 5-1 74-10 140-51 186-110 41-56 59-120 59-189 0-6 0-11 1-16 0-15 0-30 0-45 0-9 0-18 0-27 0-4 0-7 0-10 0-30 3-59 12-88 1-2 1-2 1-5 15-46 44-95 84-125 14-11 25-30 27-48 2-21-3-40-16-57-4-5-4-5-9-9-2-2-3-3-5-4-13-10-26-14-43-14-3 0-3 0-7 0-3 0-6 0-8 0-3 0-6 0-9 0-8 0-16 0-25 0-8 0-17 0-26 0-21 0-42 0-63 0-10 0-20 0-30 0-33 0-66 0-99 0-8-1-17-1-25-1-4 0-4 0-7 0-34 0-69 0-103 0-36 0-71 0-106 0-20 0-40 0-60 0-17 0-34 0-51 0-8 0-17 0-26 0-8 0-15 0-23 0-3 0-6 0-9 0-25 0-45 4-64 21-1 2-3 4-4 5-2 2-3 3-4 5-12 17-17 38-13 59 6 23 19 37 36 52 35 33 61 74 75 120 0 2 1 3 1 5 8 27 11 55 11 83 0 5 0 10 0 15 0 11 0 22 0 33 0 111 0 111 17 158 0 2 0 2 1 4 15 40 37 74 67 105 2 2 3 3 5 5 34 36 79 59 127 73 2 0 2 0 4 1 10 3 20 4 30 5 0 2 0 3 0 5 0 7 0 13 0 20 0 3-1 5-1 8 0 15 1 29 12 41 15 13 32 17 51 10z m-173-873c102 0 203 0 308 0-6-27-6-27-13-39-1-2-1-3-2-5-6-10-12-19-20-28-1-2-3-4-5-6-26-27-62-46-101-48-4 0-8 0-13 0-2 0-4 0-6 0-36 1-71 14-97 38-2 2-4 3-6 5-24 23-38 50-45 83z" horiz-adv-x="1000" />

<glyph glyph-name="forward" unicode="&#xe855;" d="M1000 493q0-15-11-25l-285-286q-11-11-25-11t-25 11-11 25v143h-125q-55 0-98-3t-86-12-74-24-59-39-45-56-27-77-10-101q0-31 3-69 0-4 2-13t1-15q0-8-5-14t-13-6q-9 0-15 10-4 5-8 12t-7 17-6 13q-71 159-71 252 0 111 30 186 90 225 488 225h125v143q0 14 11 25t25 10 25-10l285-286q11-11 11-25z" horiz-adv-x="1000" />

<glyph glyph-name="left-dir" unicode="&#xe859;" d="M357 600v-500q0-14-10-25t-26-11-25 11l-250 250q-10 11-10 25t10 25l250 250q11 11 25 11t26-11 10-25z" horiz-adv-x="357.1" />

<glyph glyph-name="right-dir" unicode="&#xe85a;" d="M321 350q0-14-10-25l-250-250q-11-11-25-11t-25 11-11 25v500q0 15 11 25t25 11 25-11l250-250q10-10 10-25z" horiz-adv-x="357.1" />

<glyph glyph-name="comment-alt" unicode="&#xe85e;" d="M1179 385q0-126-79-233t-215-170-296-62q-122 0-234 39l2-3-357-107q44 59 71 126t31 106l4 38q-106 120-106 266 0 126 79 233t215 169 295 62 296-62 215-169 79-233z" horiz-adv-x="1179" />

<glyph glyph-name="close-circular-button-symbol" unicode="&#xe860;" d="M679 529c-13 12-33 12-45 0l-134-135-133 133c-12 12-32 12-44 0-12-12-12-32 0-44l133-133-134-133c-12-12-12-32 0-45s33-12 45 0l133 134 133-133c12-12 32-12 44 0 12 13 12 32 0 44l-133 133 135 134c12 12 12 32 0 45z m-179 321c-276 0-500-224-500-500s224-500 500-500c276 0 500 224 500 500s-224 500-500 500z m0-938c-242 0-437 196-437 438 0 242 195 438 437 438 242 0 438-196 438-438 0-242-196-438-438-438z" horiz-adv-x="1000" />

<glyph glyph-name="arroba" unicode="&#xe86a;" d="M714-60c7-22-5-46-26-54-72-27-139-36-225-36-239 0-449 171-449 453 0 293 213 547 538 547 253 0 434-174 434-415 0-210-118-342-273-342-68 0-117 34-124 110h-3c-44-73-109-110-185-110-94 0-161 69-161 187 0 175 129 334 336 334 35 0 72-4 104-12 39-9 64-46 57-85l-33-204c-14-85-4-124 36-125 62-2 139 77 139 243 0 186-120 331-343 331-220 0-412-172-412-446 0-240 153-377 367-377 57 0 117 10 168 28 11 4 23 3 33-2 11-5 18-14 22-25l0 0z m-116 555c-12 3-26 6-45 6-95 0-169-93-169-204 0-55 24-89 71-89 54 0 110 67 123 151l20 136z" horiz-adv-x="1000" />

<glyph glyph-name="full-stop" unicode="&#xe881;" d="M437 293c-16 14-24 35-24 56 0 22 8 43 24 58 17 15 38 23 63 23 26 0 46-8 63-23 16-15 25-36 24-58 1-21-8-42-24-56-17-15-37-23-63-23-25 0-46 8-63 23z" horiz-adv-x="1000" />

<glyph glyph-name="pointed-star" unicode="&#xe883;" d="M641 466c-11 0-23 9-27 19l-108 333c-3 10-9 10-12 0l-108-333c-4-10-15-19-26-19h-350c-12 0-13-5-4-12l283-205c9-7 13-21 10-31l-108-333c-4-11 1-14 10-7l283 205c9 7 23 7 32 0l283-205c9-7 14-4 10 7l-108 333c-3 10 1 24 10 31l283 205c9 7 8 12-4 12h-349v0z" horiz-adv-x="1000" />

<glyph glyph-name="gudfin-star" unicode="&#xe88d;" d="M875 698l120-212-365-136 365-133-123-221-303 242 59-388h-248l54 388-306-247-128 226 362 136-359 133 119 215 312-239-56 388h250l-59-388z" horiz-adv-x="995" />

<glyph glyph-name="download" unicode="&#xe88f;" d="M487 757c20 4 34-2 42-19 1-178 2-356 2-533 77 67 153 135 230 204 13 6 26 6 39 0 13-14 15-29 7-46-93-82-185-165-277-247-6-6-12-10-19-14-11-2-22-1-31 4-96 86-193 171-289 257-8 17-6 32 7 46 13 6 26 6 39 0 77-69 153-137 230-204 0 177 1 355 2 533 4 9 10 15 18 19z m-375-750c258 1 516 0 774-1 13-5 20-15 19-30 1-15-6-25-19-30-258-2-516-2-774 0-13 5-20 15-19 30-1 15 6 25 19 31z" horiz-adv-x="1000" />

<glyph glyph-name="whatsapp" unicode="&#xe891;" d="M744 660c-82 82-191 128-307 128-239 0-433-195-433-434 0-76 20-151 58-217l-62-225 230 61c63-35 135-53 207-53h0c239 0 438 195 438 434 0 116-49 224-131 306z m-307-667c-64 0-128 18-183 50l-13 8-137-36 37 133-9 14c-36 58-55 124-55 192 0 199 162 360 361 360 96 0 186-37 254-105 68-69 110-159 110-255 0-199-166-361-365-361z m198 270c-11 6-64 32-74 35-10 4-17 6-24-5-8-11-28-35-35-43-6-7-12-8-23-2-64 31-106 56-148 128-11 20 11 18 32 60 4 7 2 13-1 19-3 5-24 58-33 80-9 21-18 18-25 19-6 0-13 0-20 0-8 0-19-3-29-14-10-10-38-37-38-90 0-53 39-105 44-112 5-7 76-117 185-164 69-29 96-32 130-27 21 3 64 26 73 52 9 25 9 47 7 51-3 5-10 8-21 13z" horiz-adv-x="875" />

<glyph glyph-name="twitter-2" unicode="&#xe895;" d="M593 427l364 423h-86l-316-368-253 368h-291l382-556-382-444h86l334 388 267-388h291l-396 577z m-118-138l-39 56-308 440h133l248-355 39-56 323-462h-132l-264 377z" horiz-adv-x="1000" />

<glyph glyph-name="tick-1" unicode="&#xe89a;" d="M431-150a55 55 0 0 0-39 16l-376 376a55 55 0 0 0 77 78l338-338 852 852a55 55 0 1 0 77-77l-890-891a54 54 0 0 0-39-16z" horiz-adv-x="1376" />

<glyph glyph-name="tiktok" unicode="&#xe8a1;" d="M624 850c17-142 96-226 234-235v-160c-80-8-150 18-231 67v-298c0-379-414-498-580-226-107 175-41 482 301 494v-168c-26-4-54-11-79-20-76-26-120-74-108-159 24-163 323-212 298 107v598h165z" horiz-adv-x="858" />

<glyph glyph-name="search" unicode="&#xe8c4;" d="M643 386q0 103-73 176t-177 74-177-74-73-176 73-177 177-73 177 73 73 177z m286-465q0-29-22-50t-50-21q-30 0-50 21l-191 191q-100-69-223-69-80 0-153 31t-125 84-84 125-31 153 31 152 84 126 125 84 153 31 153-31 125-84 84-126 31-152q0-123-69-223l191-191q21-21 21-51z" horiz-adv-x="928.6" />

<glyph glyph-name="pdf" unicode="&#xe8d4;" d="M869 636l-208 208c-4 4-10 6-15 6h-438c-46 0-83-37-83-83v-834c0-46 37-83 83-83h584c46 0 83 37 83 83v688c0 5-2 11-6 15z m-202 143l137-137h-96c-23 0-41 18-41 41v96z m166-846c0-23-18-41-41-41h-584c-23 0-41 18-41 41v834c0 23 18 41 41 41h417v-125c0-46 37-83 83-83h125v-667z m-227 305c-19 16-37 31-50 43-15 16-30 32-42 46 19 60 28 90 28 106 0 70-25 84-63 84-28 0-62-15-62-86 0-31 17-68 50-112-8-26-17-55-28-87-6-16-11-31-17-44-5-2-10-5-15-7-16-8-32-16-46-22-67-32-111-53-111-94 0-30 33-48 63-48 38 0 97 51 140 139 44 17 99 30 143 38 34-27 73-52 92-52 51 0 62 30 62 55 0 49-56 49-83 49-9 0-31-3-61-8z m-293-180c-12 0-20 6-21 7 0 15 44 36 86 56 3 1 6 2 9 4-32-46-63-67-74-67z m145 373c0 44 14 44 21 44 15 0 21 0 21-42 0-8-6-30-17-65-16 26-25 47-25 63z m16-224c2 4 3 8 4 11 8 24 15 44 21 63 9-9 18-19 28-29 4-4 14-13 26-24-25-5-53-12-79-21z m234-10c0-10 0-14-19-14-6 1-19 9-35 20 6 1 10 1 13 1 30 0 39-3 41-7z" horiz-adv-x="1000" />

<glyph glyph-name="facebook" unicode="&#xf09a;" d="M535 843v-147h-87q-48 0-65-20t-17-60v-106h164l-22-165h-142v-424h-171v424h-142v165h142v122q0 104 58 161t155 57q82 0 127-7z" horiz-adv-x="571.4" />

<glyph glyph-name="menu" unicode="&#xf0c9;" d="M857 100v-71q0-15-10-25t-26-11h-785q-15 0-25 11t-11 25v71q0 15 11 25t25 11h785q15 0 26-11t10-25z m0 286v-72q0-14-10-25t-26-10h-785q-15 0-25 10t-11 25v72q0 14 11 25t25 10h785q15 0 26-10t10-25z m0 285v-71q0-14-10-25t-26-11h-785q-15 0-25 11t-11 25v71q0 15 11 26t25 10h785q15 0 26-10t10-26z" horiz-adv-x="857.1" />

<glyph glyph-name="mail-alt" unicode="&#xf0e0;" d="M1000 454v-443q0-37-26-63t-63-27h-822q-36 0-63 27t-26 63v443q25-27 56-49 202-137 278-192 32-24 51-37t53-27 61-13h2q28 0 61 13t53 27 51 37q95 68 278 192 32 22 56 49z m0 164q0-44-27-84t-68-69q-210-146-262-181-5-4-23-17t-30-22-29-18-32-15-28-5h-2q-12 0-27 5t-32 15-30 18-30 22-23 17q-51 35-147 101t-114 80q-35 23-65 64t-31 77q0 43 23 72t66 29h822q36 0 63-26t26-63z" horiz-adv-x="1000" />

<glyph glyph-name="comment-empty" unicode="&#xf0e5;" d="M500 636q-114 0-213-39t-157-105-59-142q0-62 40-119t113-98l48-28-15-53q-13-51-39-97 85 36 154 96l24 21 32-3q38-5 72-5 114 0 213 39t157 105 59 142-59 142-157 105-213 39z m500-286q0-97-67-179t-182-130-251-48q-39 0-81 4-110-97-257-135-27-8-63-12h-3q-8 0-15 6t-9 15v1q-2 2 0 6t1 6 2 5l4 5t4 5 4 5q4 5 17 19t20 22 17 22 18 28 15 33 15 42q-88 50-138 123t-51 157q0 97 67 179t182 130 251 48 251-48 182-130 67-179z" horiz-adv-x="1000" />

<glyph glyph-name="chat-empty" unicode="&#xf0e6;" d="M393 636q-85 0-160-29t-118-79-44-107q0-45 30-88t83-73l54-32-19-46q19 11 34 21l25 18 30-6q43-8 85-8 85 0 160 29t118 79 43 106-43 107-118 79-160 29z m0 71q106 0 197-38t143-104 53-144-53-143-143-104-197-38q-48 0-98 9-70-49-155-72-21-5-48-9h-2q-6 0-12 5t-6 12q-1 1-1 3t1 4 1 3l1 3t2 3 2 3 3 3 2 2q3 3 13 14t15 16 12 17 14 21 11 25q-69 40-108 98t-40 125q0 78 53 144t143 104 197 38z m459-652q5-14 11-25t14-21 13-16 14-17 13-14q0 0 2-2t3-3 2-3 2-3l1-3t1-3 1-4-1-3q-2-8-7-13t-12-4q-28 4-48 9-86 23-156 72-50-9-98-9-151 0-263 74 32-3 49-3 90 0 172 25t148 72q69 52 107 119t37 141q0 43-13 85 72-39 114-99t42-128q0-67-40-126t-108-98z" horiz-adv-x="1000" />

<glyph glyph-name="sitemap" unicode="&#xf0e8;" d="M1000 154v-179q0-22-16-38t-38-16h-178q-22 0-38 16t-16 38v179q0 22 16 38t38 15h53v107h-285v-107h53q23 0 38-15t16-38v-179q0-22-16-38t-38-16h-178q-23 0-38 16t-16 38v179q0 22 16 38t38 15h53v107h-285v-107h53q23 0 38-15t16-38v-179q0-22-16-38t-38-16h-178q-23 0-38 16t-16 38v179q0 22 16 38t38 15h53v107q0 29 21 51t51 21h285v107h-53q-23 0-38 16t-16 37v179q0 22 16 38t38 16h178q23 0 38-16t16-38v-179q0-22-16-37t-38-16h-53v-107h285q29 0 51-21t21-51v-107h53q23 0 38-15t16-38z" horiz-adv-x="1000" />

<glyph glyph-name="angle-double-right" unicode="&#xf101;" d="M332 314q0-7-5-12l-261-261q-5-5-12-5t-13 5l-28 28q-6 6-6 13t6 13l219 219-219 220q-6 5-6 12t6 13l28 28q5 6 13 6t12-6l261-260q5-5 5-13z m214 0q0-7-5-12l-260-261q-6-5-13-5t-13 5l-28 28q-5 6-5 13t5 13l219 219-219 220q-5 5-5 12t5 13l28 28q6 6 13 6t13-6l260-260q5-5 5-13z" horiz-adv-x="571.4" />

<glyph glyph-name="reply" unicode="&#xf112;" d="M1000 225q0-93-71-252-1-4-6-13t-7-17-7-12q-7-10-16-10-8 0-13 6t-5 14q0 5 1 15t2 13q3 38 3 69 0 56-10 101t-27 77-45 56-59 39-74 24-86 12-98 3h-125v-143q0-14-10-25t-26-11-25 11l-285 286q-11 10-11 25t11 25l285 286q11 10 25 10t26-10 10-25v-143h125q398 0 488-225 30-75 30-186z" horiz-adv-x="1000" />

<glyph glyph-name="folder-open-empty" unicode="&#xf115;" d="M994 331q0 19-30 19h-607q-22 0-48-12t-39-29l-164-203q-11-13-11-22 0-20 30-20h607q23 0 48 13t40 29l164 203q10 12 10 22z m-637 90h429v90q0 22-16 38t-38 15h-321q-23 0-38 16t-16 38v36q0 22-15 38t-38 15h-179q-22 0-38-15t-16-38v-476l143 175q25 30 65 49t78 19z m708-90q0-35-25-67l-165-203q-24-30-65-49t-78-19h-607q-51 0-88 37t-37 88v536q0 51 37 88t88 37h179q51 0 88-37t37-88v-18h303q52 0 88-37t37-88v-90h107q30 0 56-13t37-40q8-17 8-37z" horiz-adv-x="1071.4" />

<glyph glyph-name="ok-squared" unicode="&#xf14a;" d="M382 125l343 343q11 10 11 25t-11 25l-57 57q-11 11-25 11t-25-11l-261-261-118 118q-10 11-25 11t-25-11l-57-57q-10-10-10-25t10-25l200-200q11-10 25-10t25 10z m475 493v-536q0-66-47-113t-114-48h-535q-67 0-114 48t-47 113v536q0 66 47 113t114 48h535q67 0 114-48t47-113z" horiz-adv-x="857.1" />

<glyph glyph-name="youtube-play" unicode="&#xf16a;" d="M397 221l270 139-270 141v-280z m103 481q94 0 181-3t128-5l41-2q0 0 9-1t13-2 13-2 16-5 16-7 17-11 16-15q4-3 9-10t16-33 15-56q4-36 7-76t3-64v-98q1-81-10-162-4-30-14-55t-18-35l-8-9q-7-8-16-15t-17-10-16-7-16-5-13-2-13-2-9-1q-140-11-350-11-115 2-201 4t-111 4l-28 3-20 2q-20 3-30 5t-29 12-31 23q-4 3-9 10t-16 33-15 56q-4 36-7 76t-3 64v98q-1 81 10 162 4 31 14 55t18 35l8 9q8 9 16 15t17 11 16 7 16 5 13 2 13 2 9 1q140 10 350 10z" horiz-adv-x="1000" />

<glyph glyph-name="instagram" unicode="&#xf16d;" d="M571 350q0 59-41 101t-101 42-101-42-42-101 42-101 101-42 101 42 41 101z m77 0q0-91-64-156t-155-64-156 64-64 156 64 156 156 64 155-64 64-156z m61 229q0-21-15-36t-37-15-36 15-15 36 15 36 36 15 37-15 15-36z m-280 123q-4 0-43 0t-59 0-54-2-57-5-40-11q-28-11-49-32t-33-49q-6-16-10-40t-6-58-1-53 0-59 0-43 0-43 0-59 1-53 6-58 10-40q12-28 33-49t49-32q16-6 40-11t57-5 54-2 59 0 43 0 42 0 59 0 54 2 58 5 39 11q28 11 50 32t32 49q6 16 10 40t6 58 1 53 0 59 0 43 0 43 0 59-1 53-6 58-10 40q-11 28-32 49t-50 32q-16 6-39 11t-58 5-54 2-59 0-42 0z m428-352q0-128-3-177-5-116-69-180t-179-69q-50-3-177-3t-177 3q-116 6-180 69t-69 180q-3 49-3 177t3 177q5 116 69 180t180 69q49 3 177 3t177-3q116-6 179-69t69-180q3-49 3-177z" horiz-adv-x="857.1" />

<glyph glyph-name="flickr" unicode="&#xf16e;" d="M696 779q67 0 114-48t47-113v-536q0-66-47-113t-114-48h-535q-67 0-114 48t-47 113v536q0 66 47 113t114 48h535z m-306-429q0 49-35 84t-84 34-83-34-35-84 35-84 83-34 84 34 35 84z m314 0q0 49-34 84t-84 34-84-34-34-84 34-84 84-34 84 34 34 84z" horiz-adv-x="857.1" />

<glyph glyph-name="paper-plane" unicode="&#xf1d8;" d="M984 844q19-13 15-36l-142-857q-3-16-18-25-8-5-18-5-6 0-13 3l-253 104-135-165q-10-13-27-13-7 0-12 2-11 4-17 13t-7 21v195l482 590-596-516-221 91q-20 8-22 30-1 23 18 33l928 536q9 5 18 5 11 0 20-6z" horiz-adv-x="1000" />

<glyph glyph-name="pinterest" unicode="&#xf231;" d="M0 517q0 60 21 113t58 93 85 69 103 44 113 14q88 0 164-37t123-108 47-160q0-54-10-105t-34-99-56-83-80-58-106-21q-38 0-75 18t-54 49q-5-22-15-63t-14-53-11-40-15-39-17-35-26-44-35-48l-7-3-5 6q-9 88-9 105 0 51 12 115t37 161 29 113q-18 36-18 94 0 47 29 87t74 41q34 0 53-23t19-57q0-37-24-106t-25-105q0-35 25-58t61-23q31 0 57 14t44 38 31 53 21 61 11 62 4 56q0 96-61 150t-160 54q-111 0-186-72t-75-183q0-25 7-48t15-36 15-26 7-17q0-15-8-40t-21-25q-1 0-9 1-29 9-51 31t-34 53-18 60-6 60z" horiz-adv-x="714.3" />

<glyph glyph-name="vimeo-1" unicode="&#xf27d;" d="M954 561q-6-132-186-363-185-241-313-241-79 0-134 147-25 89-74 269-40 146-87 146-10 0-71-42l-43 54q13 12 60 54t73 65q87 77 134 81 53 5 85-31t46-113q24-160 37-208 30-139 66-139 29 0 86 89 57 90 61 138 8 77-61 77-31 0-67-14 67 219 256 213 140-5 132-182z" horiz-adv-x="1000" />

<glyph glyph-name="reddit" unicode="&#xf281;" d="M1000 378q0-32-16-59t-45-40q7-26 7-54 0-86-60-160t-162-117-223-42-223 42-162 117-59 160q0 26 6 53-28 13-46 41t-17 59q0 46 32 78t79 33q48 0 81-35 122 85 287 90l65 291q2 7 9 12t14 2l206-45q10 21 30 33t44 13q35 0 59-24t25-59-25-59-59-25-59 24-24 59l-186 42-58-264q167-5 289-89 33 34 80 34 46 0 79-33t32-78z m-767-111q0-35 25-59t58-25 60 25 24 59-24 59-60 24q-34 0-58-25t-25-58z m452-198q6 6 6 14t-6 15q-5 5-14 5t-14-5q-23-24-68-35t-89-11-89 11-68 35q-6 5-14 5t-14-5q-6-6-6-14t6-15q24-24 66-38t68-17 51-2 51 2 68 17 66 38z m-1 114q34 0 59 25t24 59q0 34-25 58t-58 25q-35 0-60-24t-24-59 24-59 60-25z" horiz-adv-x="1000" />

<glyph glyph-name="user-circle" unicode="&#xf2bd;" d="M850 103q-12 86-49 144t-103 66q-37-42-89-65t-109-23-109 23-89 65q-66-9-103-66t-49-144q59-84 151-133t199-49 199 49 151 133z m-136 390q0 89-62 151t-152 63-151-63-63-151 63-152 151-62 152 62 62 152z m286-143q0-102-40-194t-106-160-159-106-195-40q-102 0-194 40t-160 106-106 160-40 194 40 194 106 160 160 106 194 40 194-40 160-106 106-160 40-194z" horiz-adv-x="1000" />

<glyph glyph-name="facebook-squared" unicode="&#xf308;" d="M696 779q67 0 114-48t47-113v-536q0-66-47-113t-114-48h-104v333h111l16 129h-127v83q0 31 13 46t51 16l68 1v115q-35 5-100 5-75 0-121-44t-45-127v-95h-112v-129h112v-333h-297q-67 0-114 48t-47 113v536q0 66 47 113t114 48h535z" horiz-adv-x="857.1" />

<glyph glyph-name="linkedin-squared" unicode="&#xf30c;" d="M132 61h129v387h-129v-387z m138 507q-1 29-21 48t-51 19-53-19-21-48q0-29 20-48t52-19h0q33 0 53 19t21 48z m326-507h129v222q0 86-41 130t-107 44q-76 0-117-65h1v56h-129q2-37 0-387h129v217q0 21 4 31 8 19 25 33t41 14q65 0 65-88v-207z m261 557v-536q0-66-47-113t-114-48h-535q-67 0-114 48t-47 113v536q0 66 47 113t114 48h535q67 0 114-48t47-113z" horiz-adv-x="857.1" />
</font>
</defs>
</svg>
